<svg width="40" height="40" fill="none" xmlns="http://www.w3.org/2000/svg"><path d="M37.081 12.771c-.072 1.648-.774 3.296-1.851 4.642l-.209.26a3.928 3.928 0 01-3.457 1.453l-3.6-.36a3.928 3.928 0 01-3.42-2.957l-.63-2.522c-.133-.531-.443-.857-.771-.96-1.88-.584-4.427-.573-6.286.003-.327.1-.638.426-.771.957l-.63 2.523a3.93 3.93 0 01-3.42 2.957l-3.6.359a3.928 3.928 0 01-3.457-1.453l-.209-.26c-1.077-1.346-1.779-2.994-1.851-4.643-.073-1.674.508-3.343 1.97-4.571C7.64 5.886 12.329 3.57 20 3.57S32.36 5.886 35.113 8.2c1.46 1.227 2.043 2.896 1.968 4.571zm-2.141-.095c.049-1.093-.314-2.087-1.207-2.837C31.396 7.873 27.204 5.714 20 5.714c-7.204 0-11.394 2.159-13.733 4.125-.891.75-1.256 1.744-1.207 2.837.05 1.12.54 2.344 1.383 3.397l.208.261c.379.472.97.72 1.572.66l3.6-.36a1.785 1.785 0 001.554-1.343l.63-2.524c.263-1.048.99-2.104 2.217-2.486 2.266-.7 5.255-.714 7.555 0 1.225.382 1.952 1.438 2.214 2.486l.631 2.523a1.786 1.786 0 001.555 1.343l3.6.361a1.785 1.785 0 001.57-.661l.208-.26c.843-1.053 1.334-2.277 1.383-3.397zM20.714 24.643a1.071 1.071 0 10-2.142 0v4.286c0 .591.48 1.071 1.07 1.071H22.5a1.072 1.072 0 000-2.143h-1.786v-3.214z" fill="#2A2A2A"/><path d="M20 37.143a9.285 9.285 0 100-18.571 9.285 9.285 0 000 18.57zM20 35a7.143 7.143 0 110-14.286A7.143 7.143 0 0120 35z" fill="#2A2A2A"/></svg>