<svg width="40" height="40" fill="none" xmlns="http://www.w3.org/2000/svg"><path d="M15 7.5h-5v-5H7.5v5h-5V10h5v5H10v-5h5V7.5z" fill="#2A2A2A"/><path d="M37.399 20.758l-3.75-8.75a1.25 1.25 0 00-1.149-.758h-3.75v-2.5A1.25 1.25 0 0027.5 7.5h-8.75V10h7.5v15.695a4.99 4.99 0 00-2.323 3.055h-7.854a4.975 4.975 0 00-9.646 0H5V17.5H2.5V30a1.25 1.25 0 001.25 1.25h2.678a4.975 4.975 0 009.645 0h7.854a4.975 4.975 0 009.645 0h2.678A1.25 1.25 0 0037.5 30v-8.75c0-.17-.034-.337-.101-.492zM11.25 32.5a2.5 2.5 0 110-5 2.5 2.5 0 010 5zm17.5-18.75h2.925l2.68 6.25H28.75v-6.25zm0 18.75a2.5 2.5 0 110-5 2.5 2.5 0 010 5zM35 28.75h-1.428A4.993 4.993 0 0028.75 25v-2.5H35v6.25z" fill="#2A2A2A"/></svg>