<svg width="76" height="80" fill="none" xmlns="http://www.w3.org/2000/svg"><path d="M74.86 34.4c0 8.209-4.109 15.654-10.778 21.054-6.668 5.4-15.89 8.745-26.082 8.745-10.193 0-19.414-3.345-26.082-8.745C5.249 50.054 1.14 42.609 1.14 34.399c0-8.209 4.109-15.655 10.778-21.054 6.668-5.4 15.89-8.746 26.082-8.746 10.193 0 19.414 3.346 26.082 8.746 6.67 5.4 10.778 12.845 10.778 21.054z" fill="#fff" stroke="#7D2E97" stroke-width="2"/><path d="M36.48 32.46h11.685v17.76c-2.356 1.72-5.092 3.04-8.208 3.96-3.116.92-6.175 1.38-9.177 1.38-4.256 0-8.075-.92-11.457-2.76-3.382-1.88-6.042-4.48-7.98-7.8-1.9-3.36-2.85-7.16-2.85-11.4s.95-8.02 2.85-11.34c1.938-3.36 4.617-5.96 8.037-7.8 3.458-1.88 7.353-2.82 11.685-2.82 3.914 0 7.41.7 10.488 2.1 3.116 1.36 5.7 3.36 7.752 6l-8.607 7.98c-2.508-3.08-5.491-4.62-8.949-4.62-2.964 0-5.32.94-7.068 2.82-1.748 1.88-2.622 4.44-2.622 7.68 0 3.16.855 5.7 2.565 7.62 1.748 1.92 4.066 2.88 6.954 2.88 1.71 0 3.344-.34 4.902-1.02V32.46z" fill="#fff"/><path d="M36.48 32.46v-1.2h-1.14v1.2h1.14zm11.685 0h1.14v-1.2h-1.14v1.2zm0 17.76l.65.986.49-.358v-.628h-1.14zM19.323 52.8l-.532 1.061.004.003.005.002.523-1.066zm-7.98-7.8l-.98.614.005.007.004.007.971-.628zm0-22.74l-.974-.623-.002.002v.002l.976.619zm8.037-7.8l.519 1.068h.002l.002-.002-.523-1.066zm22.173-.72l-.452 1.102.008.003.007.003.437-1.108zm7.752 6l.754.9.824-.764-.696-.896-.882.76zm-8.607 7.98l-.866.781.752.923.868-.803-.754-.901zm-16.017-1.8l.815.84-.815-.84zm-.057 15.3l-.832.82.005.006.004.004.823-.83zm11.856 1.86l.437 1.108.703-.306v-.802h-1.14zm0-9.42h11.685v-2.4H36.48v2.4zm10.545-1.2v17.76h2.28V32.46h-2.28zm.49 16.774c-2.239 1.635-4.856 2.902-7.866 3.79l.616 2.311c3.222-.951 6.077-2.324 8.55-4.129l-1.3-1.972zm-7.866 3.79c-3.023.893-5.979 1.336-8.869 1.336v2.4c3.114 0 6.276-.477 9.485-1.425l-.616-2.31zM30.78 54.36c-4.096 0-7.732-.884-10.934-2.626L18.8 53.866c3.562 1.938 7.564 2.894 11.98 2.894v-2.4zm-10.925-2.621c-3.207-1.783-5.713-4.237-7.54-7.367l-1.943 1.256c2.048 3.51 4.863 6.256 8.419 8.233l1.064-2.122zm-7.532-7.353c-1.787-3.159-2.69-6.743-2.69-10.786h-2.28c0 4.437.997 8.453 3.01 12.014l1.96-1.228zM9.633 33.6c0-4.043.903-7.605 2.687-10.72l-1.954-1.24C8.35 25.166 7.354 29.164 7.354 33.6h2.28zm2.685-10.717c1.825-3.164 4.343-5.613 7.58-7.354l-1.037-2.137c-3.602 1.938-6.442 4.69-8.492 8.245l1.949 1.246zm7.585-7.357c3.279-1.782 6.991-2.686 11.162-2.686v-2.4c-4.493 0-8.57.976-12.208 2.954l1.046 2.132zm11.162-2.686c3.784 0 7.123.676 10.036 2.002l.904-2.204c-3.242-1.474-6.896-2.198-10.94-2.198v2.4zm10.051 2.008c2.95 1.288 5.379 3.171 7.307 5.652l1.764-1.52c-2.176-2.8-4.915-4.916-8.197-6.348l-.874 2.216zm7.435 3.992l-8.607 7.98 1.508 1.8 8.607-7.98-1.508-1.8zm-6.987 8.099c-2.697-3.312-5.984-5.039-9.815-5.039v2.4c3.085 0 5.764 1.353 8.083 4.201l1.732-1.562zM31.749 21.9c-3.21 0-5.88 1.028-7.883 3.18l1.63 1.68c1.494-1.608 3.534-2.46 6.253-2.46v-2.4zm-7.883 3.18c-2.002 2.154-2.947 5.043-2.947 8.52h2.28c0-3.003.803-5.234 2.297-6.84l-1.63-1.68zM20.92 33.6c0 3.4.927 6.255 2.873 8.44l1.664-1.64c-1.474-1.655-2.257-3.88-2.257-6.8h-2.28zm2.882 8.45c1.994 2.191 4.627 3.25 7.777 3.25v-2.4c-2.626 0-4.63-.861-6.13-2.51L23.8 42.05zm7.777 3.25c1.858 0 3.64-.37 5.339-1.112l-.874-2.216a11.036 11.036 0 01-4.465.928v2.4zm6.042-2.22V32.46h-2.28v10.62h2.28z" fill="#7D2E97"/><path d="M58.504 32.472h4.839v7.062h-4.554V54.6h-9.19V39.534H46.55v-7.062h3.05v-.128c0-3.053.867-5.464 2.602-7.233 1.735-1.798 4.174-2.697 7.319-2.697 1.03 0 2.033.1 3.008.3.976.2 1.79.485 2.44.856l-2.196 6.72c-.759-.371-1.45-.557-2.073-.557-.678 0-1.22.228-1.627.685-.38.428-.569 1.099-.569 2.012v.042z" fill="#fff"/><path d="M58.504 32.472h-1.14v1.2h1.14v-1.2zm4.839 0h1.14v-1.2h-1.14v1.2zm0 7.062v1.2h1.14v-1.2h-1.14zm-4.554 0v-1.2h-1.14v1.2h1.14zm0 15.066v1.2h1.14v-1.2h-1.14zm-9.19 0h-1.14v1.2h1.14v-1.2zm0-15.066h1.14v-1.2H49.6v1.2zm-3.049 0h-1.14v1.2h1.14v-1.2zm0-7.062v-1.2h-1.14v1.2h1.14zm3.05 0v1.2h1.14v-1.2H49.6zm2.602-7.361l.793.862.003-.004.004-.003-.8-.855zm10.327-2.397l.218-1.178-.218 1.178zm2.44.856l1.078.39.314-.961-.849-.484-.543 1.055zm-2.196 6.72l-.48 1.088 1.147.56.411-1.258-1.078-.39zm-3.7.128l-.831-.82-.002.001.833.819zm-.569 3.254h4.839v-2.4h-4.839v2.4zm3.699-1.2v7.062h2.28v-7.062h-2.28zm1.14 5.862h-4.554v2.4h4.554v-2.4zm-5.694 1.2V54.6h2.28V39.534h-2.28zm1.14 13.866h-9.19v2.4h9.19v-2.4zm-8.05 1.2V39.534h-2.28V54.6h2.28zM49.6 38.334h-3.05v2.4h3.05v-2.4zm-1.909 1.2v-7.062h-2.28v7.062h2.28zm-1.14-5.862h3.05v-2.4h-3.05v2.4zm4.19-1.2v-.128h-2.28v.128h2.28zm0-.128c0-2.798.786-4.873 2.255-6.371l-1.587-1.724c-2 2.04-2.949 4.787-2.949 8.095h2.28zM53 25.966c1.465-1.518 3.584-2.352 6.52-2.352v-2.4c-3.353 0-6.114.964-8.119 3.042l1.6 1.71zm6.52-2.352c.96 0 1.89.093 2.79.278l.436-2.356a16.06 16.06 0 00-3.226-.322v2.4zm2.79.278c.9.184 1.595.436 2.115.733l1.086-2.11c-.78-.445-1.712-.763-2.765-.979l-.435 2.356zm1.58-.712l-2.196 6.72 2.156.78 2.196-6.72-2.156-.78zm-.637 6.021c-.861-.42-1.718-.668-2.554-.668v2.4c.41 0 .936.124 1.593.445l.96-2.177zm-2.554-.668c-.945 0-1.805.331-2.458 1.064l1.663 1.642c.16-.18.384-.306.795-.306v-2.4zM58.24 29.6c-.662.747-.876 1.777-.876 2.83h2.28c0-.772.166-1.083.263-1.192L58.24 29.6zm-.876 2.83v.043h2.28v-.042h-2.28z" fill="#7D2E97"/><path d="M16.366 69.805c-.916 0-1.74-.2-2.469-.602a4.4 4.4 0 01-1.714-1.664c-.414-.717-.62-1.523-.62-2.419 0-.896.206-1.698.62-2.406a4.374 4.374 0 011.714-1.677c.73-.401 1.553-.602 2.469-.602.916 0 1.739.2 2.468.602.73.4 1.301.96 1.715 1.677.413.708.62 1.51.62 2.406 0 .896-.207 1.702-.62 2.42a4.402 4.402 0 01-1.715 1.663c-.73.401-1.552.602-2.468.602zm0-2.445c.357 0 .677-.09.96-.269.292-.188.523-.448.694-.78.17-.342.255-.739.255-1.191 0-.452-.085-.845-.255-1.178a1.866 1.866 0 00-.694-.78 1.702 1.702 0 00-.96-.282 1.76 1.76 0 00-.973.282 1.89 1.89 0 00-.68.78c-.171.333-.256.726-.256 1.178 0 .452.085.849.255 1.19.17.333.397.593.681.781.292.18.616.269.973.269zm9.335-4.378h1.447v2.112h-1.362V69.6h-2.748v-4.506h-.913v-2.112h.913v-.038c0-.913.259-1.634.778-2.163.519-.538 1.248-.807 2.189-.807.308 0 .608.03.9.09.291.06.534.145.729.256l-.657 2.01a1.43 1.43 0 00-.62-.167.619.619 0 00-.486.205c-.114.128-.17.329-.17.602v.012zm5.785 0h1.447v2.112h-1.362V69.6h-2.748v-4.506h-.912v-2.112h.912v-.038c0-.913.26-1.634.778-2.163.52-.538 1.249-.807 2.189-.807.308 0 .608.03.9.09.292.06.535.145.73.256l-.657 2.01a1.43 1.43 0 00-.62-.167.619.619 0 00-.487.205c-.113.128-.17.329-.17.602v.012zm3.186-.384h2.748V69.6h-2.748v-7.002zm1.374-.563c-.495 0-.896-.136-1.204-.41-.3-.281-.45-.635-.45-1.062 0-.426.15-.776.45-1.05.308-.281.71-.422 1.204-.422.503 0 .904.132 1.204.397.3.265.45.606.45 1.024 0 .444-.15.81-.45 1.1-.3.282-.701.423-1.204.423zm6.773 7.693c-.753 0-1.43-.154-2.03-.46a3.497 3.497 0 01-1.399-1.294c-.332-.554-.498-1.181-.498-1.881s.166-1.323.498-1.869c.34-.555.807-.986 1.399-1.293.6-.307 1.277-.46 2.03-.46.811 0 1.504.183 2.08.55a2.83 2.83 0 011.192 1.523l-2.128 1.1c-.26-.614-.645-.92-1.156-.92-.324 0-.596.119-.814.358-.211.239-.317.576-.317 1.01 0 .445.106.786.317 1.025.218.239.49.358.814.358.511 0 .896-.307 1.156-.921l2.128 1.1a2.83 2.83 0 01-1.192 1.524c-.576.367-1.269.55-2.08.55zm4.515-7.13h2.748V69.6h-2.748v-7.002zm1.374-.563c-.495 0-.896-.136-1.204-.41-.3-.281-.45-.635-.45-1.062 0-.426.15-.776.45-1.05.308-.281.71-.422 1.204-.422.502 0 .904.132 1.204.397.3.265.45.606.45 1.024 0 .444-.15.81-.45 1.1-.3.282-.702.423-1.204.423zm6.18.435c1.166 0 2.058.278 2.674.832.617.547.925 1.391.925 2.535V69.6h-2.554v-.922c-.316.7-.945 1.05-1.885 1.05-.527 0-.977-.094-1.35-.282a2.127 2.127 0 01-.839-.78 2.24 2.24 0 01-.28-1.114c0-.691.252-1.216.755-1.574.502-.359 1.264-.538 2.286-.538h1.106c-.089-.546-.507-.82-1.252-.82-.3 0-.604.052-.912.154a2.417 2.417 0 00-.79.397l-.876-1.907c.38-.247.839-.44 1.374-.576a6.25 6.25 0 011.617-.218zm-.013 5.517a.872.872 0 00.523-.166.962.962 0 00.34-.5v-.486h-.68c-.56 0-.84.196-.84.589a.55.55 0 00.17.41c.122.102.284.153.487.153zm5.407-7.885h2.748V69.6h-2.748v-9.498z" fill="#fff"/><path d="M13.897 69.203l.264-.532-.264.532zm-1.714-1.664l-.487.312v.001l.001.001.486-.314zm0-4.825l.486.314v-.002l.001-.001-.487-.311zm6.651-1.677l.264-.532-.264.532zm1.715 1.677l-.487.311v.001l.001.002.486-.314zm0 4.825l.486.314v-.001l.001-.001-.487-.312zm-1.715 1.664l.264.532-.264-.532zm-1.508-2.112l.294.515.002-.002h.002l-.297-.513zm.694-.78l.502.284v-.003l.002-.003-.504-.279zm0-2.369l-.505.28.001.002.002.003.502-.285zm-.694-.78l-.303.508.008.005.008.005.287-.518zm-1.933 0l.293.514.002-.001.002-.001-.297-.512zm-.68.78l.501.285.001-.003.002-.003-.505-.279zm0 2.368l-.506.28.002.002.001.003.502-.285zm.68.781l-.303.508.008.005.008.005.287-.518zm.973 2.114c-.835 0-1.566-.182-2.205-.534l-.527 1.064c.82.45 1.734.67 2.732.67v-1.2zm-2.205-.534a3.82 3.82 0 01-1.492-1.446l-.972.628a4.983 4.983 0 001.937 1.882l.527-1.064zm-1.49-1.443c-.356-.617-.538-1.314-.538-2.108h-1.14c0 .998.231 1.913.703 2.73l.974-.622zm-.538-2.108c0-.794.182-1.486.536-2.092l-.972-.629c-.473.81-.704 1.723-.704 2.721h1.14zm.537-2.095a3.79 3.79 0 011.491-1.456l-.527-1.064a4.958 4.958 0 00-1.938 1.897l.974.623zm1.491-1.456c.64-.352 1.37-.534 2.205-.534v-1.2c-.998 0-1.912.22-2.732.67l.527 1.064zm2.205-.534c.835 0 1.565.182 2.204.534l.528-1.064c-.82-.45-1.735-.67-2.732-.67v1.2zm2.204.534a3.793 3.793 0 011.492 1.456l.974-.623a4.956 4.956 0 00-1.938-1.897l-.527 1.064zm1.493 1.459c.354.606.536 1.298.536 2.092h1.14c0-.998-.232-1.91-.704-2.72l-.972.628zm.536 2.092c0 .794-.182 1.491-.537 2.108l.974.623c.471-.818.703-1.733.703-2.731H20.6zm-.536 2.105a3.82 3.82 0 01-1.492 1.446l.527 1.064a4.983 4.983 0 001.937-1.882l-.972-.628zm-1.492 1.446c-.64.352-1.37.534-2.205.534v1.2c.997 0 1.912-.22 2.732-.67l-.527-1.064zm-2.205-.711c.451 0 .875-.115 1.254-.354l-.587-1.03a1.215 1.215 0 01-.667.184v1.2zm1.258-.357c.382-.246.682-.587.898-1.008l-1.004-.569a1.387 1.387 0 01-.489.553l.595 1.024zm.9-1.014c.22-.44.321-.936.321-1.469h-1.14c0 .372-.07.67-.19.911l1.01.558zm.321-1.469c0-.532-.1-1.026-.323-1.462l-1.004.569c.117.23.187.52.187.893h1.14zm-.32-1.457a2.453 2.453 0 00-.911-1.02l-.575 1.037c.192.118.351.291.476.541l1.01-.558zm-.895-1.01a2.25 2.25 0 00-1.264-.373v1.2c.256 0 .47.066.657.19l.607-1.016zm-1.264-.373c-.457 0-.885.122-1.27.37l.594 1.024c.199-.128.42-.194.676-.194v-1.2zm-1.266.367a2.483 2.483 0 00-.893 1.016l1.01.558a1.31 1.31 0 01.47-.545l-.587-1.029zm-.89 1.011c-.223.436-.323.93-.323 1.462h1.14c0-.372.07-.663.187-.893l-1.004-.569zm-.323 1.462c0 .533.1 1.028.32 1.47l1.01-.559c-.12-.241-.19-.539-.19-.911h-1.14zm.323 1.475c.214.417.507.757.88 1.004l.606-1.016a1.422 1.422 0 01-.482-.557l-1.004.569zm.896 1.014c.384.236.808.351 1.26.351v-1.2c-.262 0-.486-.064-.686-.187l-.574 1.036zM25.7 62.982h-.57v.6h.57v-.6zm1.447 0h.57v-.6h-.57v.6zm0 2.112v.6h.57v-.6h-.57zm-1.362 0v-.6h-.57v.6h.57zm0 4.506v.6h.57v-.6h-.57zm-2.748 0h-.57v.6h.57v-.6zm0-4.506h.57v-.6h-.57v.6zm-.913 0h-.57v.6h.57v-.6zm0-2.112v-.6h-.57v.6h.57zm.913 0v.6h.57v-.6h-.57zm.778-2.201l.396.43.002-.001.002-.002-.4-.427zm3.088-.717l.11-.589-.11.589zm.73.256l.539.195.157-.48-.424-.243-.272.528zm-.657 2.01l-.24.544.574.28.205-.63-.539-.194zm-1.106.038l-.416-.41.416.41zm-.17 1.214h1.447v-1.2H25.7v1.2zm.877-.6v2.112h1.14v-2.112h-1.14zm.57 1.512h-1.362v1.2h1.362v-1.2zm-1.932.6V69.6h1.14v-4.506h-1.14zm.57 3.906h-2.748v1.2h2.748V69zm-2.178.6v-4.506h-1.14V69.6h1.14zm-.57-5.106h-.913v1.2h.913v-1.2zm-.343.6v-2.112h-1.14v2.112h1.14zm-.57-1.512h.913v-1.2h-.913v1.2zm1.483-.6v-.038h-1.14v.038h1.14zm0-.038c0-.786.218-1.338.604-1.732l-.793-.862c-.651.664-.951 1.554-.951 2.594h1.14zm.608-1.736c.383-.397.952-.634 1.789-.634v-1.2c-1.045 0-1.935.302-2.59.98l.8.854zm1.789-.634c.272 0 .536.027.79.079l.218-1.178a5.038 5.038 0 00-1.008-.1v1.2zm.79.079c.254.052.438.12.567.195l.544-1.056a3.02 3.02 0 00-.893-.317l-.218 1.178zm.3-.528l-.657 2.01 1.078.39.657-2.01-1.078-.39zm.122 1.66a1.97 1.97 0 00-.86-.222v1.2a.9.9 0 01.38.11l.48-1.088zm-.86-.222c-.336 0-.657.12-.902.395l.832.82.005-.005.003-.002a.167.167 0 01.062-.008v-1.2zm-.903.396c-.255.287-.323.667-.323 1.01h1.14a.7.7 0 01.018-.183c.009-.029.012-.024-.002-.009l-.833-.818zm-.323 1.01v.013h1.14v-.012h-1.14zm6.355.013h-.57v.6h.57v-.6zm1.447 0h.57v-.6h-.57v.6zm0 2.112v.6h.57v-.6h-.57zm-1.362 0v-.6H31v.6h.57zm0 4.506v.6h.57v-.6h-.57zm-2.748 0h-.57v.6h.57v-.6zm0-4.506h.57v-.6h-.57v.6zm-.912 0h-.57v.6h.57v-.6zm0-2.112v-.6h-.57v.6h.57zm.912 0v.6h.57v-.6h-.57zm.778-2.201l.397.43.002-.001.001-.002-.4-.427zm3.089-.717l.109-.589-.11.589zm.73.256l.538.195.157-.48-.424-.243-.272.528zm-.657 2.01l-.24.544.573.28.206-.63-.54-.194zm-1.107.038l-.416-.41.416.41zm3.016.23v-.6h-.57v.6h.57zm2.748 0h.57v-.6h-.57v.6zm0 7.002v.6h.57v-.6h-.57zm-2.748 0h-.57v.6h.57v-.6zm.17-7.974l-.38.447.007.006.006.006.367-.46zm0-2.112l.373.453h.001l-.374-.453zm2.408-.026l-.366.46.366-.46zm0 2.125l.38.448.002-.003.004-.003-.386-.442zm-5.764 1.97h1.447v-1.2h-1.447v1.2zm.877-.6v2.111h1.14v-2.112h-1.14zm.57 1.511H31.57v1.2h1.362v-1.2zm-1.932.6V69.6h1.14v-4.506H31zM31.57 69h-2.748v1.2h2.748V69zm-2.178.6v-4.506h-1.14V69.6h1.14zm-.57-5.106h-.912v1.2h.912v-1.2zm-.342.6v-2.112h-1.14v2.112h1.14zm-.57-1.512h.912v-1.2h-.912v1.2zm1.482-.6v-.038h-1.14v.038h1.14zm0-.038c0-.786.219-1.338.605-1.732l-.793-.862c-.652.664-.952 1.554-.952 2.594h1.14zM30 61.208c.384-.397.953-.634 1.79-.634v-1.2c-1.045 0-1.936.302-2.59.98l.8.854zm1.79-.634c.272 0 .535.027.79.079l.218-1.178c-.33-.067-.666-.1-1.009-.1v1.2zm.79.079c.253.052.437.12.567.195l.543-1.056a3.02 3.02 0 00-.892-.317l-.218 1.178zm.3-.528l-.657 2.01 1.078.39.657-2.01-1.079-.39zm.122 1.66a1.97 1.97 0 00-.86-.222v1.2a.9.9 0 01.38.11l.48-1.088zm-.86-.222c-.336 0-.658.12-.903.395l.832.82.005-.005.004-.002a.167.167 0 01.062-.008v-1.2zm-.903.396c-.255.287-.324.667-.324 1.01h1.14a.7.7 0 01.019-.183c.008-.029.012-.024-.002-.009l-.833-.818zm-.324 1.01v.013h1.14v-.012h-1.14zm3.756.23h2.748v-1.2h-2.748v1.2zm2.178-.6V69.6h1.14v-7.002h-1.14zM37.42 69h-2.748v1.2h2.748V69zm-2.178.6v-7.002h-1.14V69.6h1.14zm.804-8.165c-.392 0-.653-.106-.837-.268l-.734.918c.433.383.974.55 1.571.55v-1.2zm-.824-.257a.783.783 0 01-.26-.615h-1.14c0 .596.218 1.114.64 1.51l.76-.895zm-.26-.615c0-.257.081-.44.253-.596l-.746-.907c-.428.39-.647.907-.647 1.503h1.14zm.254-.596c.184-.168.442-.276.83-.276v-1.2c-.601 0-1.145.174-1.578.57l.748.906zm.83-.276c.408 0 .667.106.838.257l.732-.92c-.429-.378-.972-.537-1.57-.537v1.2zm.838.257c.168.148.246.32.246.564h1.14c0-.593-.223-1.103-.654-1.484l-.732.92zm.246.564a.854.854 0 01-.266.659l.772.884c.422-.409.634-.938.634-1.543h-1.14zm-.26.653c-.17.16-.425.27-.824.27v1.2c.606 0 1.155-.172 1.583-.574l-.758-.896zm3.919 8.102l-.252.538.001.001h.002l.249-.539zm-1.398-1.293l-.483.32.002.003.002.003.479-.326zm0-3.75l-.48-.326v.002l.48.324zm1.398-1.293l-.25-.54v.001l-.002.001.252.538zm4.11.09l-.295.513.295-.513zm1.192 1.523l.251.538.456-.235-.17-.504-.537.201zm-2.128 1.1l-.521.244.24.57.532-.275-.251-.538zm-1.97-.562l-.41-.417-.004.004-.004.004.418.409zm0 2.035l-.418.408.004.004.003.004.41-.416zm1.97-.563l.251-.539-.532-.275-.24.57.52.244zm2.128 1.1l.537.201.17-.503-.456-.236-.251.538zm-1.192 1.524l.295.513-.295-.513zm-2.08-.05c-.678 0-1.268-.138-1.78-.4l-.5 1.079c.688.352 1.452.521 2.28.521v-1.2zm-1.778-.399a2.915 2.915 0 01-1.172-1.08l-.957.651c.399.65.946 1.153 1.625 1.505l.504-1.076zm-1.168-1.075c-.271-.452-.411-.967-.411-1.561h-1.14c0 .805.193 1.545.586 2.202l.965-.64zm-.411-1.561c0-.595.14-1.103.408-1.545l-.96-.648c-.395.65-.588 1.388-.588 2.193h1.14zm.407-1.543a2.915 2.915 0 011.172-1.08l-.504-1.077a4.077 4.077 0 00-1.625 1.505l.957.652zm1.17-1.08c.512-.262 1.102-.4 1.78-.4v-1.2c-.828 0-1.592.17-2.28.522l.5 1.079zm1.78-.4c.728 0 1.315.164 1.785.464l.59-1.026c-.681-.435-1.481-.638-2.374-.638v1.2zm1.785.464c.466.298.776.697.95 1.21l1.074-.4a3.423 3.423 0 00-1.434-1.836l-.59 1.026zm1.235.472l-2.128 1.1.503 1.077 2.128-1.1-.503-1.077zM44.483 65.4c-.156-.37-.37-.694-.66-.926a1.597 1.597 0 00-1.016-.352v1.2c.14 0 .24.039.328.109.095.076.204.213.307.456l1.041-.487zm-1.676-1.278c-.474 0-.895.182-1.225.542l.821.833a.506.506 0 01.404-.175v-1.2zm-1.232.55c-.338.383-.469.885-.469 1.42h1.14c0-.336.08-.508.164-.603l-.835-.817zm-.469 1.42c0 .54.13 1.047.47 1.432l.834-.816c-.082-.094-.163-.268-.163-.616h-1.14zm.476 1.44c.33.36.751.542 1.225.542v-1.2a.506.506 0 01-.404-.175l-.82.833zm1.225.542c.372 0 .719-.115 1.017-.352.29-.231.503-.555.66-.926l-1.042-.487c-.103.243-.212.38-.307.457a.496.496 0 01-.328.108v1.2zm.904-.983l2.128 1.1.503-1.076-2.128-1.1-.503 1.076zm1.843.362a2.236 2.236 0 01-.95 1.21l.59 1.027a3.423 3.423 0 001.434-1.836l-1.075-.401zm-.95 1.21c-.47.3-1.056.464-1.784.464v1.2c.893 0 1.693-.203 2.374-.637l-.59-1.027zm2.73-6.066v-.6h-.57v.6h.57zm2.748 0h.57v-.6h-.57v.6zm0 7.002v.6h.57v-.6h-.57zm-2.748 0h-.57v.6h.57v-.6zm.17-7.974l-.38.447.007.006.006.006.367-.46zm0-2.112l.373.453-.373-.453zm2.408-.026l-.366.46.366-.46zm0 2.125l.38.448.002-.003.003-.003-.385-.442zm-2.578 1.585h2.748v-1.2h-2.748v1.2zm2.178-.6V69.6h1.14v-7.002h-1.14zm.57 6.402h-2.748v1.2h2.748V69zm-2.178.6v-7.002h-1.14V69.6h1.14zm.804-8.165c-.392 0-.653-.106-.837-.268l-.734.918c.433.383.974.55 1.57.55v-1.2zm-.825-.257a.783.783 0 01-.259-.615h-1.14c0 .596.218 1.114.64 1.51l.76-.895zm-.259-.615c0-.257.081-.44.253-.596l-.746-.907c-.428.39-.647.907-.647 1.503h1.14zm.254-.596c.183-.168.442-.276.83-.276v-1.2c-.602 0-1.145.174-1.578.57l.748.906zm.83-.276c.407 0 .667.106.838.257l.732-.92c-.429-.378-.973-.537-1.57-.537v1.2zm.838.257c.168.148.246.32.246.564h1.14c0-.593-.223-1.103-.654-1.484l-.732.92zm.246.564a.854.854 0 01-.266.659l.771.884c.422-.409.635-.938.635-1.543h-1.14zm-.26.653c-.17.16-.425.27-.824.27v1.2c.606 0 1.154-.172 1.583-.574l-.759-.896zm8.03 2.137l-.37.456.002.002.001.001.367-.459zm.925 6.298v.6h.57v-.6h-.57zm-2.554 0h-.57v.6h.57v-.6zm0-.922h.57l-1.085-.257.515.257zm-3.235.768l-.259.535.007.003.007.004.245-.542zm-.839-.78l-.49.304.004.008.005.008.481-.32zm.475-2.688l-.32-.497.32.497zm3.392-.538v.6h.677l-.115-.702-.562.102zm-2.164-.666l.158.577.007-.002.006-.002-.171-.573zm-.79.397l-.514.261.3.653.553-.432-.34-.482zm-.876-1.907l-.3-.51-.437.284.224.487.513-.261zm1.374-.576l.134.583h.003l.003-.001-.14-.582zm2.128 5.133l-.322-.495.322.495zm.34-.5l.54.197.03-.095v-.101h-.57zm0-.486h.57v-.6h-.57v.6zm-1.35.999l-.387.44.015.014.017.014.356-.468zm.5-4.764c1.09 0 1.828.26 2.304.688l.74-.912c-.756-.68-1.8-.976-3.045-.976v1.2zm2.307.691c.447.396.722 1.044.722 2.076h1.14c0-1.255-.342-2.297-1.128-2.994l-.734.918zm.722 2.076V69.6h1.14v-3.763h-1.14zm.57 3.163h-2.554v1.2h2.554V69zm-1.984.6v-.922h-1.14v.922h1.14zm-1.085-1.18c-.194.43-.576.708-1.37.708v1.2c1.087 0 1.961-.421 2.4-1.392l-1.03-.515zm-1.37.708c-.464 0-.826-.083-1.104-.223l-.491 1.083c.467.235 1.006.34 1.595.34v-1.2zm-1.09-.216a1.55 1.55 0 01-.617-.567l-.963.641c.255.426.617.756 1.061.995l.519-1.069zm-.608-.551c-.131-.235-.2-.5-.2-.809h-1.14c0 .51.117.988.358 1.418l.982-.61zm-.2-.809c0-.511.172-.841.503-1.078l-.64-.993c-.673.48-1.003 1.2-1.003 2.071h1.14zm.503-1.078c.364-.259.99-.434 1.967-.434v-1.2c-1.066 0-1.964.183-2.606.64l.64.994zm1.967-.434h1.106v-1.2H54.62v1.2zm1.668-.702c-.07-.428-.283-.788-.641-1.022-.334-.219-.745-.295-1.173-.295v1.2c.318 0 .488.06.572.114.06.04.1.089.118.207l1.124-.204zm-1.814-1.317c-.363 0-.724.062-1.084.181l.343 1.145c.257-.086.504-.126.74-.126v-1.2zm-1.07.177c-.363.11-.69.271-.972.491l.679.964c.155-.121.355-.225.61-.302l-.318-1.153zm-.12.712l-.875-1.907-1.026.522.875 1.907 1.027-.522zm-1.089-1.135a4.04 4.04 0 011.21-.504l-.27-1.166a5.144 5.144 0 00-1.538.648l.598 1.022zm1.215-.505c.5-.134.992-.2 1.477-.2v-1.2c-.584 0-1.17.08-1.757.236l.28 1.164zm1.465 5.317c.304 0 .592-.089.845-.271l-.644-.99a.324.324 0 01-.2.061v1.2zm.845-.271c.273-.197.452-.48.557-.798l-1.077-.393c-.041.125-.09.176-.124.2l.644.991zm.588-.994v-.487h-1.14v.487h1.14zm-.57-1.087h-.68v1.2h.68v-1.2zm-.68 0c-.326 0-.669.054-.946.248-.318.223-.464.57-.464.941h1.14c0-.023.004-.014-.007.01a.13.13 0 01-.037.048c-.002.001.016-.012.07-.024.054-.013.133-.023.243-.023v-1.2zm-1.41 1.189c0 .33.124.626.353.85l.776-.88c-.003-.003-.003-.003-.001 0a.087.087 0 01.012.03c0 .003 0 .004 0 0h-1.14zm.385.878c.25.21.55.285.842.285v-1.2a.376.376 0 01-.127-.02l-.003-.002-.712.937zm6.25-8.2v-.6h-.57v.6h.57zm2.748 0h.57v-.6h-.57v.6zm0 9.498v.6h.57v-.6h-.57zm-2.749 0h-.57v.6h.57v-.6zm0-8.898h2.749v-1.2h-2.749v1.2zm2.179-.6V69.6h1.14v-9.498h-1.14zM63.03 69h-2.749v1.2h2.749V69zm-2.179.6v-9.498h-1.14V69.6h1.14z" fill="#7D2E97"/></svg>