<svg version="1.1" id="Слой_1" xmlns="http://www.w3.org/2000/svg" x="0" y="0" viewBox="0 0 1073.3 1196.2" xml:space="preserve"><style>.st0{fill:#cd6084}</style><path class="st0" d="M529.9 1196.2c-31-11.3-62.5-21.6-93-34.1-69.2-28.3-133.8-64.8-192.3-111.7-91.5-73.2-156-165.3-194.8-275.7-16.9-48-28.4-97.4-36-147.6C.4 537.4-1.1 447.2.6 356.9c.9-46.5 1.6-93 2.2-139.5.2-23.8 18.2-42.4 42-43.2 26-.9 52-1.2 77.9-3.1 144.2-10.6 273-58.9 381.1-157.3 20.1-18.3 45.9-18.4 66.2 0C654.1 90 752.1 138.1 863.5 159.5c53 10.2 106.6 14.4 160.5 14.6 15.8.1 29 5.1 38.9 17.7 4.9 6.3 8 13.6 8.1 21.6.9 77 2.5 154 2.3 230.9-.1 38.8-2.4 77.6-5.6 116.3-7.1 85.8-24.1 169.6-57.3 249.5C965.2 918.6 893.8 1006 798.2 1074c-64.6 46-135.2 80.3-209.5 107.2-14.8 5.4-29.8 10.1-44.8 15.1-4.7-.1-9.4-.1-14-.1zM92.1 256.9c-.1 1.2-.2 1.9-.2 2.5-.7 34.8-1.5 69.6-1.9 104.5-1 74.7-.8 149.3 8 223.6 5 42 12.5 83.6 24 124.3 33.9 120.5 100.6 218.2 202.2 291.8 64.4 46.5 135.4 79.7 210.2 105.4 1.7.6 4 .4 5.7-.2 55.6-19.2 109.4-42.5 160.1-72.7 64.2-38.2 120.4-85.6 165.4-145.7 51.9-69.5 82.5-148.1 99.4-232.5 12.5-62.4 18-125.6 18.7-189.1.7-60.3-.6-120.6-1-180.9-.1-10.3 0-20.5 0-31.1C816.8 250.7 666.1 205.2 537 99c-2.4 1.9-4.4 3.5-6.5 5.2-36.6 29.1-75.6 54.4-117.4 75.5-92.3 46.5-190.7 68.9-293.3 75.6-9.1.6-18.2 1.1-27.7 1.6z"/><path class="st0" d="M475.1 654.7c19.4-18.2 38.5-36 57.6-53.9 52.5-49.2 105.1-98.4 157.6-147.6 15-14 36.7-16.8 54.6-7.1 25.5 13.8 29.9 46.2 8.8 66.1-51.5 48.3-103.1 96.6-154.7 144.9-30.5 28.6-61 57.2-91.6 85.7-14.7 13.7-35.3 17-52.8 8.3-4.1-2-8.1-4.8-11.4-7.9-41-38.2-81.8-76.4-122.6-114.7-14.4-13.5-18-31.4-10-47.7 8.1-16.6 27.8-26.9 46-24.3 10.7 1.5 19.9 6 27.8 13.4 29.1 27.4 58.4 54.6 87.6 81.9.9 1 1.7 1.7 3.1 2.9z"/></svg>