<svg version="1.1" id="Слой_1" xmlns="http://www.w3.org/2000/svg" x="0" y="0" viewBox="0 0 4000.4 3191.5" xml:space="preserve"><style>.st0{fill:#cd6084}</style><path class="st0" d="M4000.4 2193.5c-4.3.1-8.7.2-13 .2H2732.2c-27 229.1-133 411.2-324.1 540.9-136.6 92.8-289.2 132.7-453.8 122.2-179.4-11.5-335-80.5-464.2-205.6-129-124.8-201-278.2-219.9-457.3H2.3c-2.4-7.6-3.2-115.9-1.2-131.1 7-2.1 1382.7-2.9 1399-.7.2 2.7.6 5.6.6 8.5v53c.7 142.8 44.4 270.6 135 381.3 88.3 107.9 201.3 176.8 337.6 207.1 51.1 11.4 103.6 15.9 155.9 13.1 130.8-6.9 247.9-50.7 349.7-133.2 92.5-75 157.1-169.3 193.8-282.9 14-43.3 23.4-87.5 25.8-133 1.8-34.2 1.5-68.6 2.2-102.9.1-3.6 0-7.2 0-11.4 4.3-.2 7.5-.5 10.8-.5h1380c3 0 6 .2 9 .4l-.1 131.9zm-2618 998c-5.4-1.2-10.8-2.7-16.3-3.7-85-15.1-150.9-82.2-163.2-167.4-15.9-110.1 60-206.6 162.2-225.1 94.4-17.1 189 35.2 222.9 125.8 43.4 115.9-26.3 238.2-142.5 264.7-9 2-18 3.8-27.1 5.7h-36zm18.9-133.8c36.6-.1 66.6-29.3 66.4-65.8-.3-42.1-34.7-67.1-66.6-66.8-37.2.4-66.8 29.4-66.7 66.4s29.6 66.3 66.9 66.2zm1181.1 133.8c-5.4-1.2-10.8-2.7-16.3-3.7-85-15.1-150.9-82.1-163.2-167.4-16-110.1 60.1-206.7 162.2-225.1 95.6-17.3 190.5 36.6 223.6 127.7 41.7 114.8-27.2 236.4-143.2 262.8-9 2.1-18.1 3.8-27.1 5.7h-36zm18.2-133.8c30.4 1.3 66.8-22.8 66.9-66.1.1-42.1-34.9-66.9-66.8-66.4-36.6.6-66.2 29.4-66.4 65.8-.5 36.4 28.7 66.3 65.1 66.8.5-.1.9-.1 1.2-.1z"/><path class="st0" d="M1534.2 2125.8c.4-75 9.3-140.1 23.2-204.8 34.4-160 87-314.3 143.9-467.2 64.6-173.6 136.3-344.3 211-513.8 71.3-161.9 145.1-322.5 221.7-482 65.9-138 133.4-275.2 202.4-411.6 6.2-12.2 12.6-24.3 24.2-32.5 21.7-15.3 44.8-18.4 68.9-6.9 24.5 11.7 37.4 32.1 38 58.8.3 13.4-3.6 27-5.7 40.4-7.8 48-15.9 95.9-23.4 143.9-6.8 43.7-13.2 87.5-19.3 131.4-5.3 38.6-10.1 77.2-14.8 115.9-4.6 37.3-9.1 74.7-13.2 112.1-3.2 28.8-5.9 57.6-8.7 86.5-3.2 33.8-6.3 67.6-9.3 101.5-1.7 19.9-3.2 39.8-4.5 59.8-3.3 53.8-6.5 107.7-9.6 161.6-1 18-1.8 35.9-2.1 53.9-.8 65.7-2.3 131.3-1.7 196.9.4 49 2.7 97.9 5.8 146.8 5 79.1 13.6 157.9 29.5 235.7 7.9 38.5 17.2 76.7 24.5 115.2 10 52.6 19.4 105.4 27.6 158.3 7.4 47.7 13.2 95.6 19.3 143.5 2.5 19.5 5.3 39.1 5.6 58.6.2 19.7-1 39.3-3.6 58.8-6.5 52.3-21.3 102.4-45.8 149.2-68.4 130.4-174.3 212.8-317.9 246.2-34.1 8-69.1 11.6-104.1 10.8-119-2.6-223.4-43-311.3-123.7-77.5-71.1-125-159.1-143.7-262.5-5.4-29.6-7.7-59.5-6.9-80.8zm736-1638.5l-1.2-.5c-1.6 3.2-3.4 6.3-4.9 9.5-22.6 47.6-45.2 95.1-67.6 142.7-83.6 178.2-164.6 357.6-241.1 539-46.9 111.1-92.3 222.8-134 335.8-52 140.9-100.5 282.9-132.5 430.1-13.4 61.8-21.7 123.9-21 187.1.7 57.2 14.9 110.7 43.2 160.2 77.3 135.2 235.5 198.4 383.9 154.8 119.6-35.2 207.7-131.4 232.8-253.5 4.6-22.5 8.1-45.4 6.1-68.5-2.6-30.2-6-60.3-10-90.3-5.3-39.6-10.7-79.2-17.4-118.5-8.9-52.2-18.1-104.3-29-156.1-13.3-63.2-28.7-125.9-35.7-190.3-4.7-43-9.5-86-13-129.2-2.9-34.5-4.8-69.1-5.7-103.8-1.8-65.3-3.8-130.6-1.4-195.9s4.4-130.5 6.9-195.8c.9-24.3 2.6-48.6 4.4-72.8 2.3-32.9 4.9-65.8 7.6-98.6 2-24.6 4.2-49.1 6.5-73.6 2.9-29.8 6-59.6 9.2-89.4 3-27.8 6.2-55.6 9.4-83.4 1.5-12.8 3-25.9 4.5-39zM134.4 2724.9c.2-146.8 119.9-265.7 267.5-265.2 144.7.5 265.8 116.2 265.7 266.1-.1 151.6-124 266.6-268.1 265.7-147.4-.9-265.9-120.7-265.1-266.6zm266.3 133.3c69.9 1.3 132.7-55.4 133.6-131.1.9-76.8-62.3-134-132.4-134.4-73.6-.4-134.1 60.5-134.1 132.8-.2 71.5 59.2 133.6 132.9 132.7zm2933.7-132.6c0-147.1 119.4-266.2 266.8-265.9 145.2.2 266.7 116.2 266.4 266.4-.3 151.4-123.8 265.9-267.4 265.4-146.8-.4-265.9-119.3-265.8-265.9zm266.7 132.6c70.2 1.1 133.1-56.4 133.2-132.5s-62.9-132.8-132.9-133c-73.3-.2-133.9 60.6-133.7 133.2.1 71.2 59.4 133.4 133.4 132.3zm-2600.3-531.1c108.9-1.3 200 89 200.2 199 .1 107.3-87.7 199.3-199.9 199.5-106.2.2-200-84.5-200.1-199.3-.1-117 96.7-200.6 199.8-199.2zm-66.4 199.1c-1 27.9 20.4 65.6 65.8 66.4 37.9.6 67.7-28.6 67.4-66.9-.3-40.7-33.3-65.9-66.4-66-36.7-.2-66.6 29.4-66.8 66.1v.4zm2066.5-199.1c108.9-1.3 200 89.1 200.1 199.1.1 107.2-87.7 199.3-200 199.4-106.2.1-199.9-84.6-200-199.4-.1-117 96.7-200.6 199.9-199.1zm-66.5 199.1c-1 27.9 20.4 65.6 65.8 66.4 37.9.6 67.7-28.6 67.4-66.9-.4-40.7-33.3-65.9-66.4-66-36.7-.2-66.6 29.4-66.8 66.1v.4z"/></svg>