<svg version="1.1" id="Слой_1" xmlns="http://www.w3.org/2000/svg" x="0" y="0" viewBox="0 0 3650 3300" xml:space="preserve"><style>.st0{fill:#cd6084}</style><path class="st0" d="M152.5 1885.5c1.2-74.7 8.6-148.5 27.7-220.7 30.7-116 81.9-222.3 155.1-317.5 46.3-60.3 98.9-114.5 160-159.9 68.9-51.2 144.9-88.1 226.8-113.4 41.5-12.8 84.1-19.9 127.3-24.4 38.8-3.9 77.9-4.9 116.8-3.1 84.3 3.7 165.5 21.7 243 55.4 55.6 24.1 108.3 53.2 156.3 90.1 51.8 39.8 98.8 84.6 136.9 137.8 51.2 71.7 86.6 150.6 102.9 237.4 9.8 52.3 11.7 105.2 8.3 158.3-4.8 73.7-24.4 143.4-56 210-33.7 71.3-81.5 135.1-140.5 187.4-60.4 53.8-130.8 88.8-208.8 109.1-26.2 6.8-53.1 9.9-80 11.4-47.7 2.6-95.3.6-142.2-9.4-35.4-7.5-69-20.2-101.7-35.4-69.9-32.4-129.1-78.7-176-139.7-40-52-67-110.5-77.6-175.5-9.3-57-9-114.5 5.5-170.6 18.7-72.3 54-135.9 107.3-188.9 20.3-20.2 44.5-27.8 72.2-21.9 19.6 4.2 34.9 15.9 46.4 32.4 12.2 17.5 14.5 37.2 11.2 57.4-2.3 13.3-8.6 25.5-18.1 35-19.9 20.4-37.6 42.6-50 68.3-21.4 44.3-32.1 91.3-26.7 140.5 8.6 78.3 45.7 140.4 108.7 188 50.1 37.9 106.5 58.2 168 66.5 41.5 5.6 82.2.6 122.8-9.1 72.5-17.5 130.7-57.1 178.4-113 39.6-46.4 69.7-98.3 86.3-157.4 11.5-40.8 20.1-82.2 20.7-124.8.5-33.8-3.7-67-11.1-100-8.8-39.2-20.6-77.2-39.6-112.7-32.8-61.1-77.3-112.2-132.4-154.3-53.6-41.1-111.6-73.8-176.6-93.3s-130.8-30.8-198.9-27.8c-38.1 1.7-75.3 8.3-112.5 16.6-98.8 22.1-183.9 69.9-257.6 138.2-57.2 53-103.1 115-140.8 183.1-40.1 72.5-63.7 150.6-78.3 231.7-9.4 52.1-11.7 104.6-9.2 157.3 2.3 48 11.2 95.1 22.3 141.8 28.1 118 85 220.7 165.1 311 52.8 59.4 114.1 109 180.2 152.7 91.3 60.3 190.6 101.8 297.3 125.9 34.8 7.9 69.7 15 105.1 19.2 51.6 6.1 103.7 7.9 155.6 5.3 86.7-4.4 171-21.6 253.4-48 81.5-26.1 157.1-64.1 227.6-112.6 49-33.7 95.1-70.8 137.1-113 19.9-20 44.3-26.9 71.6-20.9 19.9 4.4 35.6 16.2 46.8 33.4 20.2 31.1 13 71.3-11.7 96-117.9 117.5-255.6 203-412.2 258.6-57.3 20.3-115.7 35.9-175.8 45.1-43.1 6.7-86.4 11.8-130.1 12.9-23.3.6-46.6 1.6-69.9 1.3-52.6-.9-105.1-5.2-157.2-13-103.7-15.2-201.9-47.9-296.3-92.8-88-41.9-169.2-94.4-242.6-158.7-61.2-53.5-117.1-111.9-163.1-179.1-63.1-92.2-108.1-192.7-134.1-301.4-8.9-37.3-14.8-75.2-17.6-113.4-2.4-29.6-3.8-59.5-5.5-89.4zm2490.9 1268.1c-33.6.2-65.4-24.8-74-60.2-3.4-13.9-3.2-28.5 2.6-42.3 16.4-38.8 27-79.4 34.9-120.7 6.9-36.1 8.2-73 3.9-109.4-7.9-67.3-27.8-131.4-53-194-19.5-48.5-39.5-96.8-58.6-145.5-14.4-36.9-26.8-74.6-35.9-113.2-6.8-28.9-12-58.1-13.4-87.8-1.4-30.3-2.7-60.6-1.6-90.9 2.1-59.3 14.7-116.7 35.5-172.4 24.6-65.9 55.3-128.5 98.3-184.5 50.2-65.3 111.6-117.8 183.1-158.7 54.5-31.2 111.8-56.2 169.7-80.2 45.2-18.7 90.6-37.1 134.3-59.4 42.6-21.8 82.3-48 118.2-79.7 35-31 62.7-68.1 86.3-108.2 30.7-52.2 50-108.7 62.4-167.8 12.6-60.1 10.6-119.6-2.7-179.3-13.4-60.1-34.9-117.3-58.3-174-22.4-54.1-45.1-108.2-63.3-164-15.8-47.8-26-97.2-30.3-147.3-6.1-72.7-1.4-144.5 18.9-214.7 7.8-26.8 18.1-52.9 27.7-79.1 8-21.8 22.7-37.3 44.5-45.9 34.2-13.4 73.1-.3 92.3 31.1 13.7 22.7 15 46.2 4.9 70.8-19 46.6-31.5 95.6-37.1 145.7-5.2 45.8.1 91 10 135.9 13.3 60.5 35.3 117.9 58.9 174.9 21.8 52.6 43.8 105.1 61.6 159.3 16.3 49.5 27.1 100.1 31.3 152.2 7.6 93.8-4.1 184.7-38.8 272.5-23.4 59.1-51.2 115.8-89.6 166.8-53.9 71.6-120.9 128-199.5 171.2-58.5 32.1-120 57.8-181.5 83.3-46.1 19.1-92.3 38.3-135.8 63.2-41.2 23.7-79.9 50.8-112.8 85.4-37.8 39.7-67.4 85-90 134.9-21.9 48.3-36.1 98.9-43.8 151.1-7.4 50.3-3.1 100.2 7.9 149.8 13.8 62.4 36.5 121.7 60.9 180.5 20.3 48.9 40.6 97.8 57.5 148 14 41.8 25 84.2 30.5 128 5.6 46 6.6 92.4 3 138.6-4.8 64.2-22.4 124.9-46.5 184.1-9.1 22.2-23.8 38.4-46.6 46.4-8.3 2.9-17.3 3.7-26 5.5z"/><circle class="st0" cx="2490" cy="980" r="190"/><circle class="st0" cx="2190" cy="500" r="150"/><circle class="st0" cx="1880" cy="980" r="110"/></svg>