<svg version="1.1" id="Слой_1" xmlns="http://www.w3.org/2000/svg" x="0" y="0" viewBox="0 0 70 61" xml:space="preserve"><style>.st1{fill:#cd6084}.st2{font-family:&apos;Roboto-Bold&apos;}</style><path d="M14.5 7.5h41c7.2 0 13 5.8 13 13v26c0 7.2-5.8 13-13 13h-41c-7.2 0-13-5.8-13-13v-26c0-7.2 5.8-13 13-13z" fill="#fff" stroke="#cd6084" stroke-width="3"/><path class="st1" d="M22.5 0c.8 0 1.5.7 1.5 1.5v13c0 .8-.7 1.5-1.5 1.5s-1.5-.7-1.5-1.5v-13c0-.8.7-1.5 1.5-1.5zm25 0c.8 0 1.5.7 1.5 1.5v13c0 .8-.7 1.5-1.5 1.5s-1.5-.7-1.5-1.5v-13c0-.8.7-1.5 1.5-1.5z"/><text transform="translate(17 43)" class="st1 st2" font-size="25">1</text><text transform="translate(30 38)" class="st1 st2" font-size="15">год</text></svg>