<svg width="63" height="66" fill="none" xmlns="http://www.w3.org/2000/svg"><path d="M26.25 60.457h10.5-10.5zM13.125 24.732c0-5.102 1.936-9.995 5.382-13.602 3.446-3.608 8.12-5.635 12.993-5.635 4.873 0 9.547 2.027 12.993 5.635 3.446 3.607 5.382 8.5 5.382 13.602a19.885 19.885 0 01-2.085 8.893A18.91 18.91 0 0142 40.49l-1.423 7.052a5.569 5.569 0 01-1.767 3.343 5.113 5.113 0 01-3.422 1.329h-7.776a5.113 5.113 0 01-3.422-1.329 5.568 5.568 0 01-1.767-3.343L21 40.52a18.967 18.967 0 01-5.79-6.881 19.942 19.942 0 01-2.085-8.907v0zM21 41.221h21" stroke="#FFF500" stroke-width="2" stroke-linecap="round" stroke-linejoin="round"/></svg>