<svg width="48" height="48" fill="none" xmlns="http://www.w3.org/2000/svg"><path d="M23.972 24.682c-5.65 0-10.346-4.692-10.346-10.244C13.626 8.694 18.322 4 23.974 4 29.818 4 34.32 8.692 34.32 14.438a10.284 10.284 0 01-10.314 10.246l-.034-.002zm0-14.648c-2.392 0-4.212 2.01-4.212 4.406 0 2.392 1.82 4.212 4.214 4.212 2.49 0 4.214-1.82 4.214-4.212.002-2.398-1.724-4.406-4.216-4.406zm4.12 23.172l5.846 5.65c1.15 1.242 1.15 3.062 0 4.212-1.244 1.242-3.162 1.242-4.12 0l-5.844-5.746-5.652 5.746c-.574.574-1.342.86-2.206.86-.67 0-1.436-.288-2.108-.86-1.15-1.15-1.15-2.97 0-4.214l5.94-5.65a26.98 26.98 0 01-6.126-2.678c-1.438-.766-1.724-2.68-.958-4.118.958-1.436 2.682-1.818 4.216-.86a13.24 13.24 0 0013.794 0c1.534-.958 3.352-.576 4.214.86.864 1.438.478 3.35-.864 4.118-1.818 1.15-3.926 2.012-6.13 2.682l-.002-.002z" fill="#FF7500"/></svg>