<svg version="1.1" id="Слой_1" xmlns="http://www.w3.org/2000/svg" x="0" y="0" width="6000" height="6000" xml:space="preserve"><style>.st0{fill:#cd6084}</style><path class="st0" d="M6004 556v3508c-1.3 2.9-2.9 5.7-3.8 8.7-1.9 6.4-2.7 13.1-5.2 19.2-30.1 75.5-84.5 122.8-164.1 140.7-20.4 4.6-41 4.1-61.7 4.1H3769.8c-7.3 0-14.7-.2-22 .1-3.8.2-7.5 1.4-12.2 2.3-.2 8-.5 15.3-.5 22.5 0 42 .1 84-.1 126-.1 11.3-.5 22.7-2.1 33.9-12.7 87.4-60.7 147.4-142.3 180.4-24.3 9.8-49.9 14-76.2 13.9-46-.1-92-.1-138 .1-6.4 0-13.4-1.9-18.9 3-2 16.7-3.4 629.4-1.4 679.8.1 3.2.9 6.4 1.3 9.8 8.2 3.6 16.3 2.2 24.1 2.3 100.6.1 201.3.1 301.9.1 28.7 0 57.3.1 86 0 22.9-.1 45.1 3.8 66.8 11 89.4 29.9 150.2 112.8 151.4 207.4.5 43.3.1 86.6.1 130 0 45.3-.1 90.6.1 136 0 6.4-1.9 13.3 3.7 20.1 6.6.2 13.8.5 21 .5h181.9c25.3 0 50.7.2 76 0 13.6-.1 26.6 2.3 38.8 8 35.3 16.3 55.1 44.3 56.8 82.7 1.7 38.5-15.9 67.9-49.3 87.5-5.6 3.3-13 3.4-16.7 9.8h-812c-5.2-2.7-10.4-5.5-15.7-8.1-32.1-15.5-61.5-52.8-51-105.1 8.5-42.6 46-73.2 89.8-74.7 6.7-.2 13.3-.1 20-.1 81.3 0 162.6.1 243.9-.1 7.1 0 14.7 2.2 22.2-3.7.3-5.2.8-11.2.8-17.1.1-84 0-167.9 0-251.9 0-4.7 0-9.4-.5-14-2.1-17-13.2-27.5-30.4-28.8-7.3-.5-14.7-.2-22-.2H2267.7c-6.7 0-13.4-.3-20 .4-15.8 1.8-26.5 13.1-28 29-.5 5.3-.3 10.7-.3 16v143.9c0 36-.1 72 .1 108 0 5.7-1.6 12 4.2 18.1 7.6.1 16.1.3 24.7.3H3112c8 0 16-.1 24 .1 45.1 1.2 83.1 32.4 91.6 75.1 8.7 44.2-12.6 86.5-53.4 105.8-4.7 2.2-9.4 4.7-14.1 7.1h-1440c-5.3-2.7-10.5-5.4-15.8-8-39.4-19.4-60.2-61.8-51.5-105 8.5-42 46-73.3 89.8-74.9 6.7-.2 13.3-.1 20-.1 81.3 0 162.7.1 244-.1 7.1 0 14.7 2.1 22.4-3.6.2-5.9.5-12.5.5-19.1.1-30 0-60 0-90 0-56.7-.6-113.3.2-170 1-74.8 31.3-135.5 91.6-180.2 38.1-28.2 81.3-42.1 128.9-42 71.3.1 142.7 0 214 0 58 0 116 .1 174-.1 7.1 0 14.7 2 22.6-3.7.1-7.1.3-15 .3-22.9v-641.9c0-4.7.2-9.4-.2-14-.3-3.7-1.4-7.4-2.5-12.3h-22.7c-45.3 0-90.7.4-136-.2-95.4-1.1-179.8-64.9-207.8-156.2-6.7-21.9-9.4-44.3-9.4-67 0-44 0-88-.1-132 0-7.2 1.6-14.7-3-21.8-8.7-3.8-18.1-1.9-27.3-1.9-665.3-.1-1330.6-.1-1995.8-.1-11.3 0-22.7.1-34-.2-38.2-.8-73.7-11.3-106.1-31.2-57-35.1-91.9-85.8-104.2-151.7-1.2-6.6-1.9-13.3-7.9-17.7C4 2885.3 4 1734.7 4 584c7.8-4.2 6.7-12.3 8.3-19.3 20.3-90 74.6-148.1 163.4-173.4 22-6.3 44.6-7.1 67.3-7.1 499.6.1 999.2.1 1498.8.1 7.3 0 14.7.2 22-.1 3.8-.1 7.5-1.1 12.3-1.9.2-8.1.5-15.4.5-22.6.1-44.6-.5-89.3.2-133.9 1-62.2 23.6-115.5 68.5-158.9 28.9-27.9 63.1-46.2 102.3-55.7 8.2-2 17.4-1 24.4-7.2h2072c7.1 6 16.3 5.1 24.5 7 39.9 9.5 74.8 28.1 104 56.7 44 43.1 66.8 95.6 67.4 157.3.5 46 0 92 .2 138 0 6.5-1.7 13.3 2.8 19.9 8.8 2.5 18.2 1.3 27.4 1.3 500.5.1 1001.1.1 1501.6 0 18 0 35.9.6 53.8 3.5 84.6 13.9 155.8 80.4 175 163.7.3 1.7 2.2 3.1 3.3 4.6zM1241.1 2285.3c4.7-8.9 8.1-15.4 11.4-21.9 49.2-98.3 98.4-196.7 147.6-295 3.3-6.6 6.4-13.2 10-19.6 14.1-24.4 34.7-40.3 62.4-45.9 10.3-2.1 21.1-2.6 31.7-2.6 168-.2 336-.1 504-.1 7.9 0 15.8-.3 25.6-.4 6.4-61.4 17.6-120.8 34.7-178.9 17.3-59 39.9-115.9 67.9-170.6 27.8-54.1 60.2-105.3 97.5-153.3 37.7-48.6 79.5-93.4 125.5-134.2 45.5-40.3 94.3-76.2 146.5-107.5 52.7-31.7 107.9-58.1 165.6-79.4 57.1-21.1 115.6-36.6 175.6-46.5 60.6-10.1 121.7-14.7 183.2-13 208.9 5.8 398.4 69.6 564.7 196.1 227.2 172.7 354.7 403.5 388.8 686.9 6.2.4 11.4 1 16.7 1 150 .1 300 .1 450 0 5.2 0 10.4-.8 15.5-1.2 3.8-7.3 7.1-13.8 10.4-20.4 50.7-101.3 101.3-202.7 152-304 4.5-8.9 8.9-17.9 14.1-26.4 61.8-100.8 209.3-99.7 269.7 1.9 4.4 7.4 8.2 15.3 12.1 23 51 101.9 101.9 203.9 152.9 305.8 3.5 7.1 7.4 14 11.1 21.1 241.8 0 482.4 0 723.1-.1 1.8 0 3.6-1.2 6.2-2.1 2.4-7.6 1.5-15.6 1.5-23.5v-1252c0-5.3.2-10.7-.2-16-1.5-19.3-12.4-30.6-31.7-32.1-8.6-.7-17.3-.3-26-.3h-1976c-10.7 0-21.4.1-31.9-1.2-54.2-6.4-91.8-60.3-79.6-113.5 9.8-43 45.8-72.9 90-74.7 6.7-.3 13.3-.1 20-.1 81.3 0 162.7 0 244-.1 7.1 0 14.5 1.2 22-2.5.4-4.3 1-8.2 1-12.1.1-45.3.1-90.7 0-136 0-4.6-.3-9.4-1.4-13.9-3.4-14.2-13.4-22.9-28.1-24.2-6-.5-12-.3-18-.3h-1990c-6 0-12 .1-18 .3-7.7.3-14 3.7-19.5 9-7.2 7.1-9.1 15.9-9.1 25.6 0 47.3 0 94.7.1 142 0 3.7 1.5 7.4 2.6 12.2H3366c8.7 0 17.4-.3 26 .2 50.7 2.9 90.2 44.3 90 94.6-.3 56.9-45.7 92.6-87.9 94.2-11.3.4-22.7.5-34 .5h-3120c-4 0-8 0-12 .4-17.6 2-27.9 12-29.7 29.5-.8 7.9-.5 16-.5 24v1242c0 6-.2 12 .2 18 .3 3.7 1.4 7.4 2.4 12 9.6.2 18.2.4 26.8.4h736c8 0 16-.2 24 .1 37.8 1.3 66.1 18.4 84.3 51.6 4.2 7.6 7.9 15.4 11.7 23.2 48.3 96.6 96.5 193.2 144.8 289.7 3.4 6 5.7 13 13 20.3zm-312.6-195.4c-242.6 0-482.5 0-722.5.1-1.9 0-3.7 1.2-6 2-.6 2.5-1.8 5-1.8 7.6-.1 393.3 0 786.6 0 1179.9 0 2.5 1.1 5 1.7 8 10.2 3.2 20.2 1.8 30 1.8 1852.6.1 3705.1.1 5557.7.1 6.7 0 13.3.1 20-.2 3.2-.1 6.3-1.2 9.7-1.8 2.9-9.1 1.8-17.8 1.8-26.3.1-381.3 0-762.6 0-1143.9 0-4.7.2-9.3-.1-14-.2-3.8-.9-7.6-1.5-11.6-9.4-3.1-18.1-2-26.7-2-247.3-.1-494.6 0-742-.1-8.7 0-17.4.2-26-.4-33-2.3-57.9-18.2-75.1-46.3-4.2-6.8-7.5-14.1-11.1-21.3-49.5-98.9-98.9-197.9-148.4-296.8-3.2-6.4-6.7-12.6-10.6-20-7 6.2-9.2 13.3-12.4 19.7-49.8 99.5-99.6 199.1-149.3 298.6-3.6 7.1-6.9 14.5-11.2 21.2-17.1 27.2-41.7 42.5-73.9 44.8-8 .6-16 .4-24 .4-165.3 0-330.6 0-496 .1-8.6 0-17.3-1.2-27.1 2-1 5.3-2.6 11-3.2 16.8-4.1 38.5-11.2 76.4-20.1 114.1-93.8 396-436.9 713.6-875.7 748.6-96.9 7.7-193.1 1.1-288.2-20-290.9-64.7-537.7-259.7-668.8-528.6-48.9-100.4-79.7-206.1-92.2-317-.6-5.2.2-10.9-7.1-15.9h-175.7c-92.7 0-185.3 0-278 .1-7.8 0-16-1.5-24.7 2.7-3.2 6.3-6.8 13.4-10.4 20.5-50.7 101.3-101.3 202.7-152 304-4.2 8.3-8.3 16.8-13.1 24.7-61.9 101.7-210.9 100.1-270.8-2.8-4.4-7.5-8.1-15.3-12-23-50.7-101.3-101.3-202.6-152-304-3.4-7.1-7.2-14.1-11.2-21.8zM198.9 3481.3c-.3 8-.9 15.2-.9 22.4v498c0 5.3-.1 10.7.5 16 2 18.1 13.1 28.7 31.6 29.9 8.6.5 17.3.2 26 .2H2984c10 0 20-.3 30 .2 50 2.4 89.8 44.8 89.4 95-.4 49.6-39.4 90.8-88.7 93.6-8.6.5-17.3.3-26 .3h-486c-6 0-12-.2-18 .1-3.8.2-7.6 1.3-11.9 2.1-.3 6.1-.9 11.3-.9 16.6-.1 43.3 0 86.7 0 130 0 3.3-.1 6.7.1 10 1.3 17 11.7 28.4 28.8 30.6 7.2.9 14.6.6 22 .6h972c5.3 0 10.7 0 16-.1 21.2-.2 34.8-14.6 34.5-35.5-.6-47.3-.1-94.7-.3-142 0-3.7-1.4-7.4-2.3-11.7-7.7-.3-14.3-.7-20.9-.7-40-.1-80 0-120 0-6.7 0-13.3.1-20-.2-50.2-2.7-89.7-44.9-89.1-95.2.5-49.4 40-90.9 89-93.4 10-.5 20-.2 30-.2h2367.9c3.3 0 6.7.1 10-.3 15.8-1.9 27-12.6 29.2-28.3.7-5.2.5-10.6.5-16v-112c0-128.7 0-257.3-.1-386 0-7.8 1.1-15.9-2-24.2-3.5-.5-6.7-1.3-9.8-1.4-47.8-2.2-5589.2-.7-5608.5 1.6zm2810.6-2276.1c-445.9 1.2-789.9 363.8-790.5 788.2-.6 432.8 351.5 789.8 787.4 791 434.1 1.2 791-352.1 791.5-788.9.5-428-345.6-788-788.4-790.3zm-156.8 3410.9c-.8 5.6-1.7 8.8-1.7 12 0 225.1.1 450.3.3 675.4 0 1.8 1.3 3.6 2.4 6.3 5 .4 10.2 1.1 15.4 1.2 20 .1 40 .1 60 .1 71.3 0 142.5 0 213.8-.1 7.1 0 14.5 1.2 21.8-2.2.6-2.9 1.7-5.4 1.7-8 0-225.8-.1-451.6-.3-677.4 0-1.8-1.4-3.6-2.3-6.1-3.1-.4-6.3-1.2-9.5-1.2h-301.6z"/><path class="st0" d="M2376.6 3858.4h-113.8c-7.3 0-14.6-.3-21.9-.9-48.3-4.2-86.4-47-84.9-96.8 1.4-48.3 39.3-88 88.5-91.8 5.3-.4 10.6-.3 16-.3 77.9 0 155.8-.1 233.7.1 10.6 0 21.4.8 31.6 3.2 43.9 10.1 74 50.4 72 95.5-2 46.3-35.7 83.5-81.4 89.7-7.9 1.1-15.9 1-23.9 1.4h-2c-38-.1-76-.1-113.9-.1zm631.7-189.9c40.6 0 81.2.1 121.8-.1 12.1 0 23.9 1.6 35.3 5.5 36.9 12.5 69 49.9 63.1 101.8-4.7 41.6-38.5 75.7-81.2 81.3-7.9 1-15.9 1.3-23.9 1.3-76.5.1-153.1.1-229.6 0-8.6 0-17.3-.3-25.9-1.5-43.8-6.2-77.5-43.2-80.2-86.7-3.1-49.1 30.2-88.6 71.1-98.2 9.6-2.2 19.7-3.2 29.6-3.3 40-.3 80-.1 119.9-.1zm629.7 189.9h-111.8c-7.3 0-14.6-.3-21.9-.9-48-4-86.6-46.9-85-96.6 1.6-49.3 39.9-89.1 90.2-92.1 4.6-.3 9.3-.2 14-.2 77.9 0 155.8-.1 233.6.1 10.6 0 21.3.9 31.6 3.1 40.2 8.6 74.9 47.4 72.1 97.3-2.5 44.6-36.3 81.8-81.1 87.9-7.9 1.1-15.9 1.4-23.9 1.4H3638zm-703.2-1676.1c3.4-6.6 6.8-13 10.1-19.5 95.7-191.3 191.3-382.5 287-573.8 3.6-7.1 7-14.4 11.1-21.3 21.7-36.4 63.8-53.7 105-43.4 40.3 10.1 69.7 46.7 71.2 88.8.5 13.5-2.3 26.5-7.4 39-2.8 6.8-6.1 13.3-9.4 19.9l-365.7 731.1c-3.3 6.6-6.4 13.2-10.2 19.5-34.7 57.2-114.7 62-155.9 9.4-3.7-4.7-7-9.8-10.3-14.7-80.2-120.3-160.4-240.6-240.7-360.9-10.5-15.7-19-31.9-20.9-51.2-4.2-42.4 18.8-81.5 58-97.7 38.3-15.8 81.9-5.1 108.6 27 5.1 6.1 9.5 12.9 13.9 19.5 47 70.4 93.8 140.9 140.9 211.2 4 5.9 6.6 13.1 14.7 17.1z"/></svg>