<svg width="48" height="48" fill="none" xmlns="http://www.w3.org/2000/svg"><g clip-path="url(#clip0)"><path fill-rule="evenodd" clip-rule="evenodd" d="M43.083 13.913c.277-.91 0-1.58-1.325-1.58h-4.375c-1.113 0-1.626.579-1.905 1.217 0 0-2.225 5.327-5.376 8.787-1.02 1.003-1.484 1.321-2.04 1.321-.279 0-.697-.318-.697-1.23v-8.515c0-1.093-.307-1.58-1.233-1.58h-6.88c-.695 0-1.114.507-1.114.989 0 1.035 1.577 1.275 1.739 4.188v6.33c0 1.388-.255 1.64-.812 1.64-1.483 0-5.092-5.352-7.233-11.475-.415-1.192-.835-1.672-1.954-1.672H5.5c-1.25 0-1.5.579-1.5 1.217 0 1.137 1.483 6.783 6.908 14.252 3.617 5.1 8.709 7.865 13.347 7.865 2.782 0 3.125-.614 3.125-1.672V30.14c0-1.228.263-1.473 1.145-1.473.65 0 1.762.32 4.358 2.778 2.967 2.915 3.455 4.222 5.125 4.222h4.375c1.25 0 1.877-.614 1.517-1.827-.397-1.207-1.813-2.958-3.692-5.037-1.02-1.183-2.55-2.458-3.015-3.096-.648-.819-.463-1.184 0-1.912 0 0 5.334-7.377 5.889-9.882h.001z" fill="#2787F5"/></g><defs><clipPath id="clip0"><path fill="#fff" transform="translate(4 4)" d="M0 0h40v40H0z"/></clipPath></defs></svg>