<svg data-name="Слой 1" xmlns="http://www.w3.org/2000/svg" viewBox="0 0 101.62 233.62"><defs><linearGradient id="a" x2="0" y2="100%"><stop offset="0%" stop-color="#f8f8f8"/><stop offset="60%" stop-color="#f8f8f8"/><stop offset="80%" stop-color="#fff"/></linearGradient></defs><path d="M101.47 145.58a12.68 12.68 0 0 1-2.83-5.3c-.94-2.91-5-4.28-6.07-6.51s-2-9.07-2.06-16.43-1.51-15.83-2.82-19.51-2.57-7.71-2.14-12.33a41.07 41.07 0 0 0-.34-11.64c-.6-2.4-.86-2.22.08-7.1s-.94-10.27-3.85-15.41-9.16-5.22-10.78-6.42-4.8-1.88-7.79-3.59-5-2.23-5-3.42A16.77 16.77 0 0 1 59 31a13.6 13.6 0 0 0 1.19-5.13c1.29.68 1.37-.52 2.49-2.83s1.45-3.85 1.19-5.05a1.2 1.2 0 0 0-1.37-1s2-7.45-1.88-12.24A13.64 13.64 0 0 0 51.16 0h-.7A13.66 13.66 0 0 0 41 4.71C37.12 9.5 39.09 17 39.09 17a1.21 1.21 0 0 0-1.37 1c-.25 1.2.09 2.74 1.2 5.05s1.2 3.51 2.48 2.83A13.5 13.5 0 0 0 42.6 31a16.73 16.73 0 0 1 1.11 6.94c0 1.19-2 1.71-5 3.42s-6.16 2.4-7.79 3.59-7.87 1.29-10.78 6.42-4.8 10.53-3.85 15.41.68 4.7.08 7.1a40.7 40.7 0 0 0-.34 11.64c.43 4.62-.86 8.65-2.14 12.33s-2.7 12.15-2.79 19.49-.94 14.21-2 16.43-5.13 3.6-6.08 6.51-2.1 4.62-2.87 5.3 1.63 2 2.74 0 1.88-3 2.57-2.65-.26 3.94-1.12 7.7-1.71 6.25-.17 6.25 2.57-5.73 3-6.93.34 2.91-.77 5.82-.86 3.85 0 4 1.71-2.39 1.71-2.39 1.67 1.31 3.44-3.25c0 0 1.77 1.27 3.41-3.92s2.91-12 2.28-15.17 7.21-17 8.09-28.71 2.53-20.86 3.16-21.5 4.3 11.13 2.79 17.33a62 62 0 0 0-1.78 10.37c-.12 1.14-2.15 5.82-2.78 11s-2.91 10.75-.88 28.71 5.31 23.9 5.69 27.56.38 13.28.25 15.18-.76 4.55-.88 6.58-3.17 9.1.25 23.14 4.17 22.13 4.17 23.65-.76 1.77 0 3.79-2 6.3-4.09 8a9.2 9.2 0 0 0-3.13 4c-.28.9-.17 1.85.56 1.85a1.59 1.59 0 0 0 .22 1.51 1.06 1.06 0 0 0 1.24.5 1.1 1.1 0 0 0 .83 1.12 1.64 1.64 0 0 0 1.29-.06 1.72 1.72 0 0 0 1.51.95c1 0 1.23-.84 1.34-1.4s.45-1.73 1-1.78a.65.65 0 0 1 .67.95c-.23.5-.34.83-.67 1.62s.44 1.84 2.57 1.45 1.23-2.4 2.51-3.8a5.62 5.62 0 0 0 1.83-4.51c0-2 2.18-1.62 1.85-5.14s-1.07-4.53-.39-6.43-.45-4.14-.56-5a102.62 102.62 0 0 1 .43-11.74c.38-2.4 1.77-10.62 1.52-13.91s1.64-5.82-.26-14 1.14-7.2 1-15.68 2.15-11.25 1.64-19.09 1-12.14 1.26-16.44c.18-3 .73-4.1 1.05-4.48.43.35 1.06 1.33 1.22 4.1.25 4.3 1.39 9 .89 16.82s1 10.62.88 19.09 2.91 7.46 1 15.68-.76 10.75-1 14 1.9 11.51 2.28 13.91a105 105 0 0 1 .43 11.74c-.11.89-1.23 3.13-.56 5s-.05 2.91-.39 6.43 1.9 3.13 1.85 5.14a5.62 5.62 0 0 0 1.79 4.53c1.28 1.4.39 3.41 2.51 3.8s2.91-.67 2.57-1.45-.44-1.12-.67-1.62a.65.65 0 0 1 .67-.95c.56 0 .9 1.23 1 1.78s.33 1.35 1.34 1.4a1.72 1.72 0 0 0 1.51-.95 1.64 1.64 0 0 0 1.29.06A1.1 1.1 0 0 0 70 268a1 1 0 0 0 1.23-.5 1.58 1.58 0 0 0 .23-1.51c.72 0 .84-.95.56-1.85a9.29 9.29 0 0 0-3.13-4c-2.07-1.73-4.85-6-4.09-8s0-2.28 0-3.79.76-9.62 4.17-23.65 1.14-21.12 1-23.14-.76-4.68-.88-6.58.63-11.51 1-15.18 3.67-9.61 5.69-27.56-1.77-23.52-2.4-28.71-1.14-9.86-1.27-11a60.23 60.23 0 0 0-1.77-10.37c-1.51-6.2 2.15-18 2.78-17.33s2.28 9.74 3.17 21.5 8.71 25.57 8.09 28.73.63 10 2.27 15.17 3.42 3.92 3.42 3.92c1.77 4.56 3.44 3.25 3.44 3.25s.85 2.56 1.71 2.39 1.11-1.11 0-4-1.2-7-.77-5.82 1.45 6.93 3 6.93.69-2.48-.17-6.25-1.79-7.36-1.11-7.7 1.46.69 2.57 2.65 3.51.69 2.74 0z" fill="url(#a)"/></svg>