<svg width="76" height="80" viewBox="0 0 76 80" fill="none" xmlns="http://www.w3.org/2000/svg">
<path d="M74.86 34.3994C74.86 42.6088 70.7511 50.0544 64.0824 55.454C57.4136 60.8538 48.1928 64.1994 38 64.1994C27.8073 64.1994 18.5863 60.8538 11.9176 55.454C5.24901 50.0544 1.14001 42.6088 1.14001 34.3994C1.14001 26.19 5.24901 18.7444 11.9176 13.3447C18.5863 7.94492 27.8073 4.5994 38 4.5994C48.1928 4.5994 57.4136 7.94492 64.0824 13.3447C70.7511 18.7444 74.86 26.19 74.86 34.3994Z" fill="white" stroke="#7D2E97" stroke-width="2"/>
<path d="M36.48 32.46H48.165V50.22C45.809 51.94 43.073 53.26 39.957 54.18C36.841 55.1 33.782 55.56 30.78 55.56C26.524 55.56 22.705 54.64 19.323 52.8C15.941 50.92 13.281 48.32 11.343 45C9.44304 41.64 8.49304 37.84 8.49304 33.6C8.49304 29.36 9.44304 25.58 11.343 22.26C13.281 18.9 15.96 16.3 19.38 14.46C22.838 12.58 26.733 11.64 31.065 11.64C34.979 11.64 38.475 12.34 41.553 13.74C44.669 15.1 47.253 17.1 49.305 19.74L40.698 27.72C38.19 24.64 35.207 23.1 31.749 23.1C28.785 23.1 26.429 24.04 24.681 25.92C22.933 27.8 22.059 30.36 22.059 33.6C22.059 36.76 22.914 39.3 24.624 41.22C26.372 43.14 28.69 44.1 31.578 44.1C33.288 44.1 34.922 43.76 36.48 43.08V32.46Z" fill="white"/>
<path d="M36.48 32.46V31.26H35.34V32.46H36.48ZM48.165 32.46H49.305V31.26H48.165V32.46ZM48.165 50.22L48.8146 51.206L49.305 50.8482V50.22H48.165ZM19.323 52.8L18.7907 53.8612L18.7951 53.8636L18.7996 53.866L19.323 52.8ZM11.343 45L10.3634 45.6138L10.3675 45.621L10.3717 45.6282L11.343 45ZM11.343 22.26L10.3686 21.6372L10.3675 21.639L10.3665 21.6408L11.343 22.26ZM19.38 14.46L19.8989 15.5285L19.901 15.5274L19.9031 15.5262L19.38 14.46ZM41.553 13.74L41.1008 14.8416L41.1086 14.8451L41.1164 14.8485L41.553 13.74ZM49.305 19.74L50.0586 20.6404L50.8834 19.8757L50.1874 18.9801L49.305 19.74ZM40.698 27.72L39.8324 28.501L40.5844 29.4244L41.4516 28.6206L40.698 27.72ZM24.681 25.92L25.4958 26.7594L24.681 25.92ZM24.624 41.22L23.7924 42.0408L23.7966 42.0456L23.8009 42.0502L24.624 41.22ZM36.48 43.08L36.9167 44.1884L37.62 43.8816V43.08H36.48ZM36.48 33.66H48.165V31.26H36.48V33.66ZM47.025 32.46V50.22H49.305V32.46H47.025ZM47.5154 49.234C45.2761 50.8688 42.6586 52.136 39.6492 53.0246L40.2648 55.3354C43.4874 54.384 46.342 53.0112 48.8146 51.206L47.5154 49.234ZM39.6492 53.0246C36.6256 53.9172 33.6701 54.36 30.78 54.36V56.76C33.8939 56.76 37.0565 56.2828 40.2648 55.3354L39.6492 53.0246ZM30.78 54.36C26.6844 54.36 23.0484 53.476 19.8465 51.734L18.7996 53.866C22.3617 55.804 26.3637 56.76 30.78 56.76V54.36ZM19.8554 51.7388C16.6476 49.9558 14.1418 47.5024 12.3143 44.3718L10.3717 45.6282C12.4203 49.1376 15.2345 51.8842 18.7907 53.8612L19.8554 51.7388ZM12.3226 44.3862C10.5364 41.2274 9.63303 37.6428 9.63303 33.6H7.35303C7.35303 38.0372 8.34965 42.0526 10.3634 45.6138L12.3226 44.3862ZM9.63303 33.6C9.63303 29.557 10.5364 25.995 12.3195 22.8792L10.3665 21.6408C8.34963 25.165 7.35303 29.163 7.35303 33.6H9.63303ZM12.3175 22.8828C14.1425 19.7186 16.6614 17.2703 19.8989 15.5285L18.8612 13.3915C15.2587 15.3297 12.4195 18.0814 10.3686 21.6372L12.3175 22.8828ZM19.9031 15.5262C23.1819 13.7437 26.8942 12.84 31.065 12.84V10.44C26.5719 10.44 22.4941 11.4163 18.8569 13.3938L19.9031 15.5262ZM31.065 12.84C34.8493 12.84 38.1876 13.5164 41.1008 14.8416L42.0052 12.6384C38.7625 11.1636 35.1088 10.44 31.065 10.44V12.84ZM41.1164 14.8485C44.0662 16.1359 46.4947 18.0193 48.4227 20.4998L50.1874 18.9801C48.0113 16.1807 45.2719 14.0641 41.9897 12.6315L41.1164 14.8485ZM48.5515 18.8395L39.9445 26.8194L41.4516 28.6206L50.0586 20.6404L48.5515 18.8395ZM41.5637 26.939C38.8668 23.6272 35.5804 21.9 31.749 21.9V24.3C34.8337 24.3 37.5133 25.6528 39.8324 28.501L41.5637 26.939ZM31.749 21.9C28.5399 21.9 25.8683 22.9276 23.8663 25.0806L25.4958 26.7594C26.9897 25.1524 29.0301 24.3 31.749 24.3V21.9ZM23.8663 25.0806C21.8637 27.2344 20.919 30.1232 20.919 33.6H23.199C23.199 30.5968 24.0024 28.3656 25.4958 26.7594L23.8663 25.0806ZM20.919 33.6C20.919 37 21.8458 39.8552 23.7924 42.0408L25.4557 40.3992C23.9822 38.7448 23.199 36.52 23.199 33.6H20.919ZM23.8009 42.0502C25.7954 44.241 28.428 45.3 31.578 45.3V42.9C28.952 42.9 26.9487 42.039 25.4471 40.3898L23.8009 42.0502ZM31.578 45.3C33.4357 45.3 35.2182 44.9298 36.9167 44.1884L36.0434 41.9716C34.6258 42.5902 33.1404 42.9 31.578 42.9V45.3ZM37.62 43.08V32.46H35.34V43.08H37.62Z" fill="#7D2E97"/>
<path d="M58.5041 32.4724H63.3426V39.5344H58.7887V54.6H49.5995V39.5344H46.55V32.4724H49.5995V32.344C49.5995 29.291 50.4669 26.8798 52.2018 25.1108C53.9367 23.3132 56.3763 22.4144 59.5206 22.4144C60.5506 22.4144 61.5536 22.5142 62.5294 22.714C63.5053 22.9138 64.3185 23.199 64.969 23.57L62.7734 30.2896C62.0143 29.9186 61.3231 29.7332 60.6997 29.7332C60.022 29.7332 59.4799 29.9614 59.0733 30.418C58.6939 30.846 58.5041 31.5166 58.5041 32.4296V32.4724Z" fill="white"/>
<path d="M58.5041 32.4724H57.3641V33.6724H58.5041V32.4724ZM63.3426 32.4724H64.4826V31.2724H63.3426V32.4724ZM63.3426 39.5344V40.7344H64.4826V39.5344H63.3426ZM58.7887 39.5344V38.3344H57.6487V39.5344H58.7887ZM58.7887 54.6V55.8H59.9287V54.6H58.7887ZM49.5995 54.6H48.4595V55.8H49.5995V54.6ZM49.5995 39.5344H50.7395V38.3344H49.5995V39.5344ZM46.55 39.5344H45.41V40.7344H46.55V39.5344ZM46.55 32.4724V31.2724H45.41V32.4724H46.55ZM49.5995 32.4724V33.6724H50.7395V32.4724H49.5995ZM52.2018 25.1108L52.995 25.9726L52.9983 25.9694L53.0015 25.966L52.2018 25.1108ZM62.5294 22.714L62.747 21.536L62.5294 22.714ZM64.969 23.57L66.0471 23.9602L66.3612 22.999L65.512 22.5148L64.969 23.57ZM62.7734 30.2896L62.2933 31.378L63.4401 31.9384L63.8514 30.6798L62.7734 30.2896ZM59.0733 30.418L58.2417 29.5972L58.24 29.5992L59.0733 30.418ZM58.5041 33.6724H63.3426V31.2724H58.5041V33.6724ZM62.2026 32.4724V39.5344H64.4826V32.4724H62.2026ZM63.3426 38.3344H58.7887V40.7344H63.3426V38.3344ZM57.6487 39.5344V54.6H59.9287V39.5344H57.6487ZM58.7887 53.4H49.5995V55.8H58.7887V53.4ZM50.7395 54.6V39.5344H48.4595V54.6H50.7395ZM49.5995 38.3344H46.55V40.7344H49.5995V38.3344ZM47.69 39.5344V32.4724H45.41V39.5344H47.69ZM46.55 33.6724H49.5995V31.2724H46.55V33.6724ZM50.7395 32.4724V32.344H48.4595V32.4724H50.7395ZM50.7395 32.344C50.7395 29.5456 51.5256 27.4712 52.995 25.9726L51.4085 24.249C49.4084 26.2886 48.4595 29.0362 48.4595 32.344H50.7395ZM53.0015 25.966C54.466 24.4484 56.5845 23.6144 59.5206 23.6144V21.2144C56.1678 21.2144 53.4071 22.178 51.4021 24.2556L53.0015 25.966ZM59.5206 23.6144C60.4803 23.6144 61.4101 23.7074 62.3119 23.892L62.747 21.536C61.697 21.3212 60.6211 21.2144 59.5206 21.2144V23.6144ZM62.3119 23.892C63.2104 24.0758 63.9056 24.3284 64.426 24.6252L65.512 22.5148C64.7313 22.0698 63.8001 21.7516 62.747 21.536L62.3119 23.892ZM63.891 23.1798L61.6953 29.8994L63.8514 30.6798L66.0471 23.9602L63.891 23.1798ZM63.2535 29.2012C62.393 28.7806 61.5355 28.5332 60.6997 28.5332V30.9332C61.1109 30.9332 61.6359 31.0568 62.2933 31.378L63.2535 29.2012ZM60.6997 28.5332C59.7554 28.5332 58.8947 28.864 58.2417 29.5972L59.9049 31.2388C60.0651 31.059 60.2887 30.9332 60.6997 30.9332V28.5332ZM58.24 29.5992C57.5782 30.3456 57.3641 31.3764 57.3641 32.4296H59.6441C59.6441 31.6568 59.8096 31.3464 59.9067 31.2368L58.24 29.5992ZM57.3641 32.4296V32.4724H59.6441V32.4296H57.3641Z" fill="#7D2E97"/>
<path d="M16.3658 69.8048C15.4498 69.8048 14.6269 69.6042 13.8973 69.2032C13.1677 68.8022 12.5962 68.2474 12.1828 67.5392C11.7693 66.8224 11.5626 66.016 11.5626 65.12C11.5626 64.224 11.7693 63.4218 12.1828 62.7136C12.5962 61.9968 13.1677 61.4378 13.8973 61.0368C14.6269 60.6358 15.4498 60.4352 16.3658 60.4352C17.2819 60.4352 18.1047 60.6358 18.8343 61.0368C19.5639 61.4378 20.1354 61.9968 20.5489 62.7136C20.9623 63.4218 21.169 64.224 21.169 65.12C21.169 66.016 20.9623 66.8224 20.5489 67.5392C20.1354 68.2474 19.5639 68.8022 18.8343 69.2032C18.1047 69.6042 17.2819 69.8048 16.3658 69.8048ZM16.3658 67.36C16.7225 67.36 17.0427 67.2704 17.3265 67.0912C17.6183 66.9034 17.8493 66.6432 18.0196 66.3104C18.1898 65.969 18.2749 65.5722 18.2749 65.12C18.2749 64.6678 18.1898 64.2752 18.0196 63.9424C17.8493 63.601 17.6183 63.3408 17.3265 63.1616C17.0427 62.9738 16.7225 62.88 16.3658 62.88C16.0091 62.88 15.6849 62.9738 15.393 63.1616C15.1093 63.3408 14.8823 63.601 14.7121 63.9424C14.5418 64.2752 14.4567 64.6678 14.4567 65.12C14.4567 65.5722 14.5418 65.969 14.7121 66.3104C14.8823 66.6432 15.1093 66.9034 15.393 67.0912C15.6849 67.2704 16.0091 67.36 16.3658 67.36ZM25.7005 62.9824H27.1476V65.0944H25.7856V69.6H23.0375V65.0944H22.1255V62.9824H23.0375V62.944C23.0375 62.031 23.2968 61.3098 23.8157 60.7808C24.3346 60.2432 25.0642 59.9744 26.0045 59.9744C26.3125 59.9744 26.6125 60.0042 26.9044 60.064C27.1962 60.1238 27.4394 60.209 27.634 60.32L26.9773 62.3296C26.7503 62.2186 26.5435 62.1632 26.3572 62.1632C26.1544 62.1632 25.9924 62.2314 25.8708 62.368C25.7573 62.496 25.7005 62.6966 25.7005 62.9696V62.9824ZM31.486 62.9824H32.9331V65.0944H31.5711V69.6H28.823V65.0944H27.911V62.9824H28.823V62.944C28.823 62.031 29.0823 61.3098 29.6012 60.7808C30.1201 60.2432 30.8497 59.9744 31.79 59.9744C32.098 59.9744 32.398 60.0042 32.6899 60.064C32.9817 60.1238 33.2249 60.209 33.4195 60.32L32.7628 62.3296C32.5358 62.2186 32.329 62.1632 32.1427 62.1632C31.9399 62.1632 31.7779 62.2314 31.6563 62.368C31.5428 62.496 31.486 62.6966 31.486 62.9696V62.9824ZM34.6719 62.5984H37.4201V69.6H34.6719V62.5984ZM36.046 62.0352C35.5514 62.0352 35.1502 61.8986 34.8422 61.6256C34.5422 61.344 34.3923 60.9898 34.3923 60.5632C34.3923 60.1366 34.5422 59.7866 34.8422 59.5136C35.1502 59.232 35.5514 59.0912 36.046 59.0912C36.5486 59.0912 36.9498 59.2234 37.2499 59.488C37.5499 59.7526 37.6998 60.0938 37.6998 60.512C37.6998 60.9558 37.5499 61.3226 37.2499 61.6128C36.9498 61.8944 36.5486 62.0352 36.046 62.0352ZM42.8195 69.728C42.0656 69.728 41.3886 69.5744 40.7888 69.2672C40.1969 68.96 39.7309 68.529 39.3904 67.9744C39.0581 67.4198 38.8918 66.7926 38.8918 66.0928C38.8918 65.393 39.0581 64.7702 39.3904 64.224C39.7309 63.6694 40.1969 63.2384 40.7888 62.9312C41.3886 62.624 42.0656 62.4704 42.8195 62.4704C43.6302 62.4704 44.3234 62.6538 44.8989 63.0208C45.4744 63.3878 45.8717 63.8954 46.0906 64.544L43.9626 65.6448C43.7032 65.0304 43.3181 64.7232 42.8074 64.7232C42.483 64.7232 42.2115 64.8426 41.9926 65.0816C41.7819 65.3206 41.6765 65.6576 41.6765 66.0928C41.6765 66.5366 41.7819 66.8778 41.9926 67.1168C42.2115 67.3558 42.483 67.4752 42.8074 67.4752C43.3181 67.4752 43.7032 67.168 43.9626 66.5536L46.0906 67.6544C45.8717 68.303 45.4744 68.8106 44.8989 69.1776C44.3234 69.5446 43.6302 69.728 42.8195 69.728ZM47.3337 62.5984H50.0819V69.6H47.3337V62.5984ZM48.7078 62.0352C48.2132 62.0352 47.812 61.8986 47.504 61.6256C47.204 61.344 47.054 60.9898 47.054 60.5632C47.054 60.1366 47.204 59.7866 47.504 59.5136C47.812 59.232 48.2132 59.0912 48.7078 59.0912C49.2104 59.0912 49.6116 59.2234 49.9116 59.488C50.2117 59.7526 50.3616 60.0938 50.3616 60.512C50.3616 60.9558 50.2117 61.3226 49.9116 61.6128C49.6116 61.8944 49.2104 62.0352 48.7078 62.0352ZM54.8872 62.4704C56.0545 62.4704 56.9462 62.7478 57.5624 63.3024C58.1785 63.8486 58.4865 64.6934 58.4865 65.8368V69.6H55.9329V68.6784C55.6168 69.3782 54.9884 69.728 54.0481 69.728C53.5213 69.728 53.0713 69.6342 52.6984 69.4464C52.3336 69.2502 52.0539 68.9898 51.8593 68.6656C51.6729 68.3328 51.5797 67.9616 51.5797 67.552C51.5797 66.8608 51.831 66.336 52.3336 65.9776C52.8361 65.6192 53.5982 65.44 54.6197 65.44H55.7262C55.6371 64.8938 55.2195 64.6208 54.4737 64.6208C54.1737 64.6208 53.8697 64.672 53.5617 64.7744C53.2537 64.8682 52.9902 65.0006 52.7713 65.1712L51.8958 63.264C52.2768 63.0166 52.7349 62.8246 53.2699 62.688C53.8131 62.543 54.3521 62.4704 54.8872 62.4704ZM54.875 67.9872C55.0696 67.9872 55.2438 67.9318 55.3979 67.8208C55.552 67.7098 55.6654 67.5434 55.7384 67.3216V66.8352H55.0574C54.4981 66.8352 54.2184 67.0314 54.2184 67.424C54.2184 67.5862 54.2752 67.7226 54.3886 67.8336C54.5102 67.936 54.6723 67.9872 54.875 67.9872ZM60.2822 60.1024H63.0304V69.6H60.2822V60.1024Z" fill="white"/>
<path d="M13.8974 69.2032L14.1612 68.6714L13.8974 69.2032ZM12.1828 67.5392L11.6956 67.8506L11.6964 67.852L11.6972 67.8534L12.1828 67.5392ZM12.1828 62.7136L12.6685 63.0278L12.6693 63.0264L12.6701 63.025L12.1828 62.7136ZM18.8344 61.0368L19.0983 60.505L18.8344 61.0368ZM20.5489 62.7136L20.0618 63.025L20.0625 63.0264L20.0633 63.0278L20.5489 62.7136ZM20.5489 67.5392L21.0346 67.8534L21.0353 67.852L21.0361 67.8506L20.5489 67.5392ZM18.8344 69.2032L19.0983 69.735L18.8344 69.2032ZM17.3265 67.0912L17.6198 67.6056L17.6218 67.6044L17.6238 67.6032L17.3265 67.0912ZM18.0196 66.3104L18.5215 66.5948L18.5229 66.592L18.5243 66.5894L18.0196 66.3104ZM18.0196 63.9424L17.515 64.2212L17.5163 64.224L17.5178 64.2268L18.0196 63.9424ZM17.3265 63.1616L17.0232 63.6696L17.0312 63.6748L17.0393 63.6798L17.3265 63.1616ZM15.3931 63.1616L15.6863 63.676L15.6883 63.6748L15.6903 63.6736L15.3931 63.1616ZM14.7121 63.9424L15.214 64.2268L15.2154 64.224L15.2168 64.2212L14.7121 63.9424ZM14.7121 66.3104L14.2074 66.5894L14.2088 66.592L14.2103 66.5948L14.7121 66.3104ZM15.3931 67.0912L15.0897 67.5992L15.0977 67.6044L15.1059 67.6094L15.3931 67.0912ZM16.3659 69.2048C15.5312 69.2048 14.8005 69.0228 14.1612 68.6714L13.6335 69.735C14.4535 70.1858 15.3685 70.4048 16.3659 70.4048V69.2048ZM14.1612 68.6714C13.5189 68.3182 13.0257 67.837 12.6685 67.225L11.6972 67.8534C12.1669 68.658 12.8167 69.286 13.6335 69.735L14.1612 68.6714ZM12.6701 67.2278C12.3145 66.6114 12.1327 65.914 12.1327 65.12H10.9927C10.9927 66.118 11.2243 67.0334 11.6956 67.8506L12.6701 67.2278ZM12.1327 65.12C12.1327 64.326 12.3145 63.6342 12.6685 63.0278L11.6972 62.3994C11.2243 63.2096 10.9927 64.122 10.9927 65.12H12.1327ZM12.6701 63.025C13.0277 62.405 13.5206 61.9208 14.1612 61.5686L13.6335 60.505C12.815 60.955 12.1649 61.5886 11.6956 62.4022L12.6701 63.025ZM14.1612 61.5686C14.8005 61.2172 15.5312 61.0352 16.3659 61.0352V59.8352C15.3685 59.8352 14.4535 60.0542 13.6335 60.505L14.1612 61.5686ZM16.3659 61.0352C17.2006 61.0352 17.9312 61.2172 18.5705 61.5686L19.0983 60.505C18.2783 60.0542 17.3633 59.8352 16.3659 59.8352V61.0352ZM18.5705 61.5686C19.2111 61.9208 19.704 62.405 20.0618 63.025L21.0361 62.4022C20.567 61.5886 19.9168 60.955 19.0983 60.505L18.5705 61.5686ZM20.0633 63.0278C20.4172 63.6342 20.5991 64.326 20.5991 65.12H21.7391C21.7391 64.122 21.5075 63.2096 21.0346 62.3994L20.0633 63.0278ZM20.5991 65.12C20.5991 65.914 20.4172 66.6114 20.0618 67.2278L21.0361 67.8506C21.5075 67.0334 21.7391 66.118 21.7391 65.12H20.5991ZM20.0633 67.225C19.7061 67.837 19.2128 68.3182 18.5705 68.6714L19.0983 69.735C19.9151 69.286 20.5649 68.658 21.0346 67.8534L20.0633 67.225ZM18.5705 68.6714C17.9312 69.0228 17.2006 69.2048 16.3659 69.2048V70.4048C17.3633 70.4048 18.2783 70.1858 19.0983 69.735L18.5705 68.6714ZM16.3659 67.96C16.8175 67.96 17.2406 67.8452 17.6198 67.6056L17.0333 66.5768C16.845 66.6956 16.6276 66.76 16.3659 66.76V67.96ZM17.6238 67.6032C18.0061 67.3572 18.3059 67.0164 18.5215 66.5948L17.5178 66.026C17.3929 66.27 17.2306 66.4498 17.0293 66.5792L17.6238 67.6032ZM18.5243 66.5894C18.7443 66.1482 18.845 65.6526 18.845 65.12H17.705C17.705 65.492 17.6354 65.79 17.515 66.0314L18.5243 66.5894ZM18.845 65.12C18.845 64.5878 18.7445 64.0938 18.5215 63.658L17.5178 64.2268C17.6353 64.4566 17.705 64.7476 17.705 65.12H18.845ZM18.5243 63.6634C18.3087 63.2312 18.0057 62.884 17.6137 62.6434L17.0393 63.6798C17.231 63.7976 17.3901 63.971 17.515 64.2212L18.5243 63.6634ZM17.6299 62.6536C17.2493 62.4018 16.8227 62.28 16.3659 62.28V63.48C16.6225 63.48 16.8362 63.5458 17.0232 63.6696L17.6299 62.6536ZM16.3659 62.28C15.909 62.28 15.4811 62.4018 15.0959 62.6496L15.6903 63.6736C15.8887 63.546 16.1094 63.48 16.3659 63.48V62.28ZM15.0998 62.6472C14.717 62.8888 14.4209 63.2354 14.2074 63.6634L15.2168 64.2212C15.3438 63.9666 15.5017 63.7928 15.6863 63.676L15.0998 62.6472ZM14.2103 63.658C13.9873 64.0938 13.8868 64.5878 13.8868 65.12H15.0268C15.0268 64.7476 15.0965 64.4566 15.214 64.2268L14.2103 63.658ZM13.8868 65.12C13.8868 65.6526 13.9874 66.1482 14.2074 66.5894L15.2168 66.0314C15.0963 65.79 15.0268 65.492 15.0268 65.12H13.8868ZM14.2103 66.5948C14.4238 67.0122 14.7166 67.3524 15.0897 67.5992L15.6964 66.5832C15.502 66.4546 15.341 66.2742 15.214 66.026L14.2103 66.5948ZM15.1059 67.6094C15.4898 67.8452 15.9141 67.96 16.3659 67.96V66.76C16.1043 66.76 15.88 66.6956 15.6803 66.573L15.1059 67.6094ZM25.7006 62.9824H25.1306V63.5824H25.7006V62.9824ZM27.1476 62.9824H27.7176V62.3824H27.1476V62.9824ZM27.1476 65.0944V65.6944H27.7176V65.0944H27.1476ZM25.7857 65.0944V64.4944H25.2157V65.0944H25.7857ZM25.7857 69.6V70.2H26.3557V69.6H25.7857ZM23.0375 69.6H22.4675V70.2H23.0375V69.6ZM23.0375 65.0944H23.6075V64.4944H23.0375V65.0944ZM22.1255 65.0944H21.5555V65.6944H22.1255V65.0944ZM22.1255 62.9824V62.3824H21.5555V62.9824H22.1255ZM23.0375 62.9824V63.5824H23.6075V62.9824H23.0375ZM23.8158 60.7808L24.2123 61.2118L24.214 61.21L24.2157 61.2084L23.8158 60.7808ZM26.9044 60.064L27.0133 59.475L26.9044 60.064ZM27.634 60.32L28.173 60.5152L28.33 60.0346L27.9055 59.7924L27.634 60.32ZM26.9774 62.3296L26.7374 62.8738L27.3108 63.154L27.5164 62.5248L26.9774 62.3296ZM25.8708 62.368L25.4549 61.9576L25.4541 61.9586L25.8708 62.368ZM25.7006 63.5824H27.1476V62.3824H25.7006V63.5824ZM26.5776 62.9824V65.0944H27.7176V62.9824H26.5776ZM27.1476 64.4944H25.7857V65.6944H27.1476V64.4944ZM25.2157 65.0944V69.6H26.3557V65.0944H25.2157ZM25.7857 69H23.0375V70.2H25.7857V69ZM23.6075 69.6V65.0944H22.4675V69.6H23.6075ZM23.0375 64.4944H22.1255V65.6944H23.0375V64.4944ZM22.6955 65.0944V62.9824H21.5555V65.0944H22.6955ZM22.1255 63.5824H23.0375V62.3824H22.1255V63.5824ZM23.6075 62.9824V62.944H22.4675V62.9824H23.6075ZM23.6075 62.944C23.6075 62.1582 23.8262 61.6056 24.2123 61.2118L23.4192 60.3498C22.7677 61.0142 22.4675 61.9036 22.4675 62.944H23.6075ZM24.2157 61.2084C24.5993 60.8108 25.1684 60.5744 26.0046 60.5744V59.3744C24.9601 59.3744 24.0698 59.6756 23.4158 60.3532L24.2157 61.2084ZM26.0046 60.5744C26.2774 60.5744 26.5409 60.6008 26.7955 60.653L27.0133 59.475C26.6842 59.4076 26.3479 59.3744 26.0046 59.3744V60.5744ZM26.7955 60.653C27.0488 60.7048 27.2329 60.7738 27.3625 60.8476L27.9055 59.7924C27.646 59.6444 27.3437 59.5426 27.0133 59.475L26.7955 60.653ZM27.095 60.1248L26.4383 62.1344L27.5164 62.5248L28.173 60.5152L27.095 60.1248ZM27.2173 61.7854C26.9396 61.6496 26.6498 61.5632 26.3572 61.5632V62.7632C26.4376 62.7632 26.5611 62.7876 26.7374 62.8738L27.2173 61.7854ZM26.3572 61.5632C26.0213 61.5632 25.6998 61.6826 25.4549 61.9576L26.2867 62.7784C26.2898 62.7748 26.2917 62.7736 26.292 62.7732C26.2922 62.773 26.2932 62.7724 26.2953 62.7714C26.2991 62.7698 26.3169 62.7632 26.3572 62.7632V61.5632ZM25.4541 61.9586C25.1995 62.2458 25.1306 62.6264 25.1306 62.9696H26.2706C26.2706 62.8744 26.2806 62.8164 26.2894 62.7856C26.2976 62.757 26.3015 62.7616 26.2875 62.7774L25.4541 61.9586ZM25.1306 62.9696V62.9824H26.2706V62.9696H25.1306ZM31.4861 62.9824H30.9161V63.5824H31.4861V62.9824ZM32.9331 62.9824H33.5031V62.3824H32.9331V62.9824ZM32.9331 65.0944V65.6944H33.5031V65.0944H32.9331ZM31.5712 65.0944V64.4944H31.0012V65.0944H31.5712ZM31.5712 69.6V70.2H32.1412V69.6H31.5712ZM28.823 69.6H28.253V70.2H28.823V69.6ZM28.823 65.0944H29.393V64.4944H28.823V65.0944ZM27.911 65.0944H27.341V65.6944H27.911V65.0944ZM27.911 62.9824V62.3824H27.341V62.9824H27.911ZM28.823 62.9824V63.5824H29.393V62.9824H28.823ZM29.6013 60.7808L29.9978 61.2118L29.9995 61.21L30.0012 61.2084L29.6013 60.7808ZM32.6899 60.064L32.7988 59.475L32.6899 60.064ZM33.4195 60.32L33.9585 60.5152L34.1155 60.0346L33.691 59.7924L33.4195 60.32ZM32.7629 62.3296L32.5229 62.8738L33.0963 63.154L33.3019 62.5248L32.7629 62.3296ZM31.6563 62.368L31.2404 61.9576L31.2396 61.9586L31.6563 62.368ZM34.672 62.5984V61.9984H34.102V62.5984H34.672ZM37.4202 62.5984H37.9902V61.9984H37.4202V62.5984ZM37.4202 69.6V70.2H37.9902V69.6H37.4202ZM34.672 69.6H34.102V70.2H34.672V69.6ZM34.8422 61.6256L34.4628 62.0734L34.4689 62.079L34.4752 62.0846L34.8422 61.6256ZM34.8422 59.5136L35.215 59.9674L35.216 59.9666L34.8422 59.5136ZM37.2499 59.488L36.8838 59.948L37.2499 59.488ZM37.2499 61.6128L37.6293 62.0606L37.6324 62.0576L37.6356 62.0546L37.2499 61.6128ZM31.4861 63.5824H32.9331V62.3824H31.4861V63.5824ZM32.3631 62.9824V65.0944H33.5031V62.9824H32.3631ZM32.9331 64.4944H31.5712V65.6944H32.9331V64.4944ZM31.0012 65.0944V69.6H32.1412V65.0944H31.0012ZM31.5712 69H28.823V70.2H31.5712V69ZM29.393 69.6V65.0944H28.253V69.6H29.393ZM28.823 64.4944H27.911V65.6944H28.823V64.4944ZM28.481 65.0944V62.9824H27.341V65.0944H28.481ZM27.911 63.5824H28.823V62.3824H27.911V63.5824ZM29.393 62.9824V62.944H28.253V62.9824H29.393ZM29.393 62.944C29.393 62.1582 29.6117 61.6056 29.9978 61.2118L29.2047 60.3498C28.5532 61.0142 28.253 61.9036 28.253 62.944H29.393ZM30.0012 61.2084C30.3848 60.8108 30.9539 60.5744 31.7901 60.5744V59.3744C30.7456 59.3744 29.8553 59.6756 29.2013 60.3532L30.0012 61.2084ZM31.7901 60.5744C32.0629 60.5744 32.3264 60.6008 32.581 60.653L32.7988 59.475C32.4697 59.4076 32.1334 59.3744 31.7901 59.3744V60.5744ZM32.581 60.653C32.8343 60.7048 33.0184 60.7738 33.148 60.8476L33.691 59.7924C33.4315 59.6444 33.1292 59.5426 32.7988 59.475L32.581 60.653ZM32.8805 60.1248L32.2238 62.1344L33.3019 62.5248L33.9585 60.5152L32.8805 60.1248ZM33.0028 61.7854C32.7251 61.6496 32.4353 61.5632 32.1427 61.5632V62.7632C32.2231 62.7632 32.3466 62.7876 32.5229 62.8738L33.0028 61.7854ZM32.1427 61.5632C31.8068 61.5632 31.4853 61.6826 31.2404 61.9576L32.0722 62.7784C32.0753 62.7748 32.0772 62.7736 32.0775 62.7732C32.0777 62.773 32.0787 62.7724 32.0808 62.7714C32.0846 62.7698 32.1024 62.7632 32.1427 62.7632V61.5632ZM31.2396 61.9586C30.985 62.2458 30.9161 62.6264 30.9161 62.9696H32.0561C32.0561 62.8744 32.0661 62.8164 32.0749 62.7856C32.0831 62.757 32.087 62.7616 32.073 62.7774L31.2396 61.9586ZM30.9161 62.9696V62.9824H32.0561V62.9696H30.9161ZM34.672 63.1984H37.4202V61.9984H34.672V63.1984ZM36.8502 62.5984V69.6H37.9902V62.5984H36.8502ZM37.4202 69H34.672V70.2H37.4202V69ZM35.242 69.6V62.5984H34.102V69.6H35.242ZM36.0461 61.4352C35.6541 61.4352 35.3929 61.3292 35.2093 61.1666L34.4752 62.0846C34.9078 62.4682 35.4489 62.6352 36.0461 62.6352V61.4352ZM35.2217 61.1778C35.0442 61.0112 34.9623 60.8206 34.9623 60.5632H33.8223C33.8223 61.1592 34.0404 61.6768 34.4628 62.0734L35.2217 61.1778ZM34.9623 60.5632C34.9623 60.3064 35.0434 60.1236 35.215 59.9674L34.4695 59.0598C34.041 59.4496 33.8223 59.9668 33.8223 60.5632H34.9623ZM35.216 59.9666C35.3995 59.7988 35.6585 59.6912 36.0461 59.6912V58.4912C35.4447 58.4912 34.9011 58.6652 34.4685 59.0606L35.216 59.9666ZM36.0461 59.6912C36.4536 59.6912 36.7128 59.797 36.8838 59.948L37.616 59.028C37.1872 58.6498 36.6436 58.4912 36.0461 58.4912V59.6912ZM36.8838 59.948C37.0523 60.0964 37.1298 60.2682 37.1298 60.512H38.2698C38.2698 59.9194 38.0473 59.4086 37.616 59.028L36.8838 59.948ZM37.1298 60.512C37.1298 60.7944 37.0422 60.999 36.8642 61.171L37.6356 62.0546C38.0576 61.6464 38.2698 61.117 38.2698 60.512H37.1298ZM36.8705 61.165C36.6993 61.3258 36.4451 61.4352 36.0461 61.4352V62.6352C36.6522 62.6352 37.2007 62.463 37.6293 62.0606L36.8705 61.165ZM40.7889 69.2672L40.5367 69.8054L40.5381 69.806L40.5396 69.8068L40.7889 69.2672ZM39.3905 67.9744L38.9084 68.2946L38.9099 68.2972L38.9117 68.3L39.3905 67.9744ZM39.3905 64.224L38.9117 63.8984L38.9105 63.9004L39.3905 64.224ZM40.7889 62.9312L40.5396 62.3916L40.5381 62.3924L40.5367 62.393L40.7889 62.9312ZM44.8989 63.0208L44.6037 63.534L44.8989 63.0208ZM46.0906 64.544L46.342 65.0824L46.7978 64.8468L46.6277 64.3432L46.0906 64.544ZM43.9626 65.6448L43.4418 65.8884L43.6824 66.4584L44.214 66.1832L43.9626 65.6448ZM41.9927 65.0816L41.5823 64.6652L41.5787 64.6692L41.5751 64.6734L41.9927 65.0816ZM41.9927 67.1168L41.5751 67.525L41.5787 67.5292L41.5823 67.5332L41.9927 67.1168ZM43.9626 66.5536L44.214 66.0152L43.6824 65.74L43.4418 66.31L43.9626 66.5536ZM46.0906 67.6544L46.6277 67.8552L46.7978 67.3516L46.342 67.116L46.0906 67.6544ZM44.8989 69.1776L45.1942 69.6908L44.8989 69.1776ZM42.8196 69.128C42.1407 69.128 41.5508 68.9902 41.0381 68.7276L40.5396 69.8068C41.2266 70.1586 41.9906 70.328 42.8196 70.328V69.128ZM41.041 68.729C40.5365 68.4672 40.1508 68.1076 39.8693 67.6488L38.9117 68.3C39.311 68.9506 39.8575 69.4528 40.5367 69.8054L41.041 68.729ZM39.8725 67.6542C39.6015 67.202 39.4619 66.6872 39.4619 66.0928H38.3219C38.3219 66.898 38.5147 67.6376 38.9084 68.2946L39.8725 67.6542ZM39.4619 66.0928C39.4619 65.4984 39.6015 64.9896 39.8704 64.5476L38.9105 63.9004C38.5147 64.5508 38.3219 65.2878 38.3219 66.0928H39.4619ZM39.8693 64.5496C40.1508 64.0908 40.5365 63.7312 41.041 63.4694L40.5367 62.393C39.8575 62.7456 39.311 63.2478 38.9117 63.8984L39.8693 64.5496ZM41.0381 63.4708C41.5508 63.2082 42.1407 63.0704 42.8196 63.0704V61.8704C41.9906 61.8704 41.2266 62.0398 40.5396 62.3916L41.0381 63.4708ZM42.8196 63.0704C43.5475 63.0704 44.1338 63.2344 44.6037 63.534L45.1942 62.5076C44.5129 62.0732 43.713 61.8704 42.8196 61.8704V63.0704ZM44.6037 63.534C45.0703 63.8316 45.38 64.2308 45.5535 64.7448L46.6277 64.3432C46.3635 63.5602 45.8786 62.944 45.1942 62.5076L44.6037 63.534ZM45.8392 64.0056L43.7112 65.1064L44.214 66.1832L46.342 65.0824L45.8392 64.0056ZM44.4834 65.4012C44.3268 65.0302 44.1137 64.7068 43.8235 64.4754C43.526 64.238 43.1794 64.1232 42.8074 64.1232V65.3232C42.9461 65.3232 43.0474 65.362 43.135 65.4318C43.23 65.5076 43.339 65.645 43.4418 65.8884L44.4834 65.4012ZM42.8074 64.1232C42.3334 64.1232 41.9121 64.3052 41.5823 64.6652L42.4031 65.498C42.511 65.3802 42.633 65.3232 42.8074 65.3232V64.1232ZM41.5751 64.6734C41.2373 65.0562 41.1065 65.558 41.1065 66.0928H42.2465C42.2465 65.7572 42.3265 65.585 42.4103 65.4898L41.5751 64.6734ZM41.1065 66.0928C41.1065 66.6326 41.2355 67.1404 41.5751 67.525L42.4103 66.7086C42.3282 66.6154 42.2465 66.4406 42.2465 66.0928H41.1065ZM41.5823 67.5332C41.9121 67.8932 42.3334 68.0752 42.8074 68.0752V66.8752C42.633 66.8752 42.511 66.8182 42.4031 66.7004L41.5823 67.5332ZM42.8074 68.0752C43.1794 68.0752 43.526 67.9604 43.8235 67.723C44.1137 67.4916 44.3268 67.1682 44.4834 66.7972L43.4418 66.31C43.339 66.5534 43.23 66.6908 43.135 66.7666C43.0474 66.8364 42.9461 66.8752 42.8074 66.8752V68.0752ZM43.7112 67.092L45.8392 68.1928L46.342 67.116L44.214 66.0152L43.7112 67.092ZM45.5535 67.4536C45.38 67.9676 45.0703 68.3668 44.6037 68.6644L45.1942 69.6908C45.8786 69.2544 46.3635 68.6382 46.6277 67.8552L45.5535 67.4536ZM44.6037 68.6644C44.1338 68.964 43.5475 69.128 42.8196 69.128V70.328C43.713 70.328 44.5129 70.1252 45.1942 69.6908L44.6037 68.6644ZM47.3338 62.5984V61.9984H46.7638V62.5984H47.3338ZM50.0819 62.5984H50.6519V61.9984H50.0819V62.5984ZM50.0819 69.6V70.2H50.6519V69.6H50.0819ZM47.3338 69.6H46.7638V70.2H47.3338V69.6ZM47.504 61.6256L47.1246 62.0734L47.1307 62.079L47.1369 62.0846L47.504 61.6256ZM47.504 59.5136L47.8768 59.9674L47.8778 59.9666L47.504 59.5136ZM49.9117 59.488L49.5456 59.948L49.9117 59.488ZM49.9117 61.6128L50.2911 62.0606L50.2942 62.0576L50.2974 62.0546L49.9117 61.6128ZM47.3338 63.1984H50.0819V61.9984H47.3338V63.1984ZM49.5119 62.5984V69.6H50.6519V62.5984H49.5119ZM50.0819 69H47.3338V70.2H50.0819V69ZM47.9038 69.6V62.5984H46.7638V69.6H47.9038ZM48.7079 61.4352C48.3159 61.4352 48.0546 61.3292 47.8711 61.1666L47.1369 62.0846C47.5696 62.4682 48.1107 62.6352 48.7079 62.6352V61.4352ZM47.8835 61.1778C47.706 61.0112 47.6241 60.8206 47.6241 60.5632H46.4841C46.4841 61.1592 46.7022 61.6768 47.1246 62.0734L47.8835 61.1778ZM47.6241 60.5632C47.6241 60.3064 47.7052 60.1236 47.8768 59.9674L47.1312 59.0598C46.7028 59.4496 46.4841 59.9668 46.4841 60.5632H47.6241ZM47.8778 59.9666C48.0613 59.7988 48.3203 59.6912 48.7079 59.6912V58.4912C48.1065 58.4912 47.5629 58.6652 47.1303 59.0606L47.8778 59.9666ZM48.7079 59.6912C49.1154 59.6912 49.3746 59.797 49.5456 59.948L50.2778 59.028C49.849 58.6498 49.3054 58.4912 48.7079 58.4912V59.6912ZM49.5456 59.948C49.7141 60.0964 49.7916 60.2682 49.7916 60.512H50.9316C50.9316 59.9194 50.7091 59.4086 50.2778 59.028L49.5456 59.948ZM49.7916 60.512C49.7916 60.7944 49.704 60.999 49.526 61.171L50.2974 62.0546C50.7194 61.6464 50.9316 61.117 50.9316 60.512H49.7916ZM49.5323 61.165C49.3611 61.3258 49.1069 61.4352 48.7079 61.4352V62.6352C49.314 62.6352 49.8625 62.463 50.2911 62.0606L49.5323 61.165ZM57.5624 63.3024L57.1919 63.7584L57.1937 63.7598L57.1954 63.7614L57.5624 63.3024ZM58.4866 69.6V70.2H59.0566V69.6H58.4866ZM55.933 69.6H55.363V70.2H55.933V69.6ZM55.933 68.6784H56.503L55.4183 68.4206L55.933 68.6784ZM52.6984 69.4464L52.4391 69.9806L52.4457 69.9842L52.4526 69.9876L52.6984 69.4464ZM51.8594 68.6656L51.3684 68.9704L51.3728 68.9782L51.3776 68.986L51.8594 68.6656ZM52.3336 65.9776L52.0139 65.4808L52.3336 65.9776ZM55.7263 65.44V66.04H56.4027L56.2881 65.3384L55.7263 65.44ZM53.5618 64.7744L53.7203 65.3508L53.7269 65.3488L53.7334 65.3466L53.5618 64.7744ZM52.7714 65.1712L52.2582 65.4322L52.5576 66.0846L53.1107 65.6534L52.7714 65.1712ZM51.8959 63.264L51.5966 62.7534L51.1589 63.0376L51.3827 63.525L51.8959 63.264ZM53.27 62.688L53.4043 63.2712L53.4071 63.2704L53.4102 63.2696L53.27 62.688ZM55.398 67.8208L55.0761 67.3256L55.398 67.8208ZM55.7384 67.3216L56.2771 67.5178L56.3084 67.4226V67.3216H55.7384ZM55.7384 66.8352H56.3084V66.2352H55.7384V66.8352ZM54.3887 67.8336L54.0009 68.2732L54.0163 68.2884L54.0326 68.3022L54.3887 67.8336ZM54.8872 63.0704C55.9775 63.0704 56.7164 63.3302 57.1919 63.7584L57.9329 62.8464C57.1764 62.1652 56.1317 61.8704 54.8872 61.8704V63.0704ZM57.1954 63.7614C57.6419 64.1572 57.9166 64.805 57.9166 65.8368H59.0566C59.0566 64.5816 58.7152 63.5398 57.9295 62.8434L57.1954 63.7614ZM57.9166 65.8368V69.6H59.0566V65.8368H57.9166ZM58.4866 69H55.933V70.2H58.4866V69ZM56.503 69.6V68.6784H55.363V69.6H56.503ZM55.4183 68.4206C55.2243 68.8498 54.8418 69.128 54.0482 69.128V70.328C55.1354 70.328 56.0094 69.9066 56.4477 68.9362L55.4183 68.4206ZM54.0482 69.128C53.5838 69.128 53.2225 69.045 52.9443 68.9052L52.4526 69.9876C52.9204 70.2232 53.4588 70.328 54.0482 70.328V69.128ZM52.9578 68.9122C52.6726 68.7586 52.4748 68.5676 52.3412 68.3452L51.3776 68.986C51.6331 69.4122 51.9947 69.7416 52.4391 69.9806L52.9578 68.9122ZM52.3504 68.3608C52.2189 68.126 52.1497 67.861 52.1497 67.552H51.0097C51.0097 68.0622 51.1271 68.5396 51.3684 68.9704L52.3504 68.3608ZM52.1497 67.552C52.1497 67.0406 52.3219 66.7108 52.6534 66.4744L52.0139 65.4808C51.3403 65.9612 51.0097 66.681 51.0097 67.552H52.1497ZM52.6534 66.4744C53.0169 66.2152 53.6425 66.04 54.6197 66.04V64.84C53.554 64.84 52.6557 65.0232 52.0139 65.4808L52.6534 66.4744ZM54.6197 66.04H55.7263V64.84H54.6197V66.04ZM56.2881 65.3384C56.218 64.9098 56.005 64.55 55.647 64.316C55.3128 64.0974 54.9021 64.0208 54.4738 64.0208V65.2208C54.7915 65.2208 54.9623 65.2808 55.0455 65.3352C55.1052 65.3742 55.1453 65.424 55.1644 65.5416L56.2881 65.3384ZM54.4738 64.0208C54.1113 64.0208 53.7495 64.0828 53.3902 64.2022L53.7334 65.3466C53.9902 65.2612 54.2365 65.2208 54.4738 65.2208V64.0208ZM53.4033 64.198C53.0414 64.3084 52.7142 64.4692 52.4321 64.689L53.1107 65.6534C53.2663 65.532 53.466 65.4282 53.7203 65.3508L53.4033 64.198ZM53.2846 64.9102L52.4091 63.003L51.3827 63.525L52.2582 65.4322L53.2846 64.9102ZM52.1951 63.7746C52.5151 63.567 52.9147 63.396 53.4043 63.2712L53.1356 62.1048C52.5552 62.253 52.0388 62.4662 51.5966 62.7534L52.1951 63.7746ZM53.4102 63.2696C53.9097 63.1362 54.4016 63.0704 54.8872 63.0704V61.8704C54.3028 61.8704 53.7166 61.9498 53.1297 62.1064L53.4102 63.2696ZM54.8751 68.5872C55.1793 68.5872 55.4667 68.4982 55.7198 68.316L55.0761 67.3256C55.021 67.3652 54.96 67.3872 54.8751 67.3872V68.5872ZM55.7198 68.316C55.9932 68.1192 56.1722 67.8368 56.2771 67.5178L55.1998 67.1254C55.1587 67.25 55.1109 67.3006 55.0761 67.3256L55.7198 68.316ZM56.3084 67.3216V66.8352H55.1684V67.3216H56.3084ZM55.7384 66.2352H55.0575V67.4352H55.7384V66.2352ZM55.0575 66.2352C54.7324 66.2352 54.3891 66.2888 54.112 66.4832C53.7942 66.7062 53.6484 67.053 53.6484 67.424H54.7884C54.7884 67.4012 54.7922 67.4104 54.7806 67.4348C54.7679 67.4614 54.7506 67.4772 54.7444 67.4816C54.7419 67.4834 54.7596 67.4704 54.8141 67.4578C54.8682 67.445 54.9475 67.4352 55.0575 67.4352V66.2352ZM53.6484 67.424C53.6484 67.754 53.7719 68.0496 54.0009 68.2732L54.7765 67.394C54.7736 67.391 54.774 67.3908 54.7759 67.3936C54.7778 67.3966 54.7806 67.4014 54.7831 67.4076C54.7858 67.4136 54.7873 67.4192 54.7881 67.4232C54.7888 67.427 54.7884 67.4276 54.7884 67.424H53.6484ZM54.0326 68.3022C54.2823 68.5124 54.5823 68.5872 54.8751 68.5872V67.3872C54.8186 67.3872 54.7839 67.38 54.7653 67.3742C54.7561 67.3712 54.7508 67.3686 54.7482 67.3672C54.7457 67.3658 54.7447 67.3652 54.7447 67.365L54.0326 68.3022ZM60.2823 60.1024V59.5024H59.7123V60.1024H60.2823ZM63.0305 60.1024H63.6005V59.5024H63.0305V60.1024ZM63.0305 69.6V70.2H63.6005V69.6H63.0305ZM60.2823 69.6H59.7123V70.2H60.2823V69.6ZM60.2823 60.7024H63.0305V59.5024H60.2823V60.7024ZM62.4605 60.1024V69.6H63.6005V60.1024H62.4605ZM63.0305 69H60.2823V70.2H63.0305V69ZM60.8523 69.6V60.1024H59.7123V69.6H60.8523Z" fill="#7D2E97"/>
</svg>
