<?xml version="1.0" encoding="utf-8"?>
<!-- Generator: Adobe Illustrator 21.0.0, SVG Export Plug-In . SVG Version: 6.00 Build 0)  -->
<svg version="1.1" id="Слой_1" xmlns="http://www.w3.org/2000/svg" xmlns:xlink="http://www.w3.org/1999/xlink" x="0px" y="0px"
	 viewBox="0 0 1073.3 1196.2" style="enable-background:new 0 0 1073.3 1196.2;" xml:space="preserve">
<style type="text/css">
	.st0{fill:#CD6084;}
</style>
<path class="st0" d="M529.9,1196.2c-31-11.3-62.5-21.6-93-34.1c-69.2-28.3-133.8-64.8-192.3-111.7c-91.5-73.2-156-165.3-194.8-275.7
	c-16.9-48-28.4-97.4-36-147.6C0.4,537.4-1.1,447.2,0.6,356.9c0.9-46.5,1.6-93,2.2-139.5C3,193.6,21,175,44.8,174.2
	c26-0.9,52-1.2,77.9-3.1c144.2-10.6,273-58.9,381.1-157.3c20.1-18.3,45.9-18.4,66.2,0C654.1,90,752.1,138.1,863.5,159.5
	c53,10.2,106.6,14.4,160.5,14.6c15.8,0.1,29,5.1,38.9,17.7c4.9,6.3,8,13.6,8.1,21.6c0.9,77,2.5,154,2.3,230.9
	c-0.1,38.8-2.4,77.6-5.6,116.3c-7.1,85.8-24.1,169.6-57.3,249.5C965.2,918.6,893.8,1006,798.2,1074c-64.6,46-135.2,80.3-209.5,107.2
	c-14.8,5.4-29.8,10.1-44.8,15.1C539.2,1196.2,534.5,1196.2,529.9,1196.2z M92.1,256.9c-0.1,1.2-0.2,1.9-0.2,2.5
	c-0.7,34.8-1.5,69.6-1.9,104.5c-1,74.7-0.8,149.3,8,223.6c5,42,12.5,83.6,24,124.3c33.9,120.5,100.6,218.2,202.2,291.8
	c64.4,46.5,135.4,79.7,210.2,105.4c1.7,0.6,4,0.4,5.7-0.2c55.6-19.2,109.4-42.5,160.1-72.7c64.2-38.2,120.4-85.6,165.4-145.7
	c51.9-69.5,82.5-148.1,99.4-232.5c12.5-62.4,18-125.6,18.7-189.1c0.7-60.3-0.6-120.6-1-180.9c-0.1-10.3,0-20.5,0-31.1
	C816.8,250.7,666.1,205.2,537,99c-2.4,1.9-4.4,3.5-6.5,5.2c-36.6,29.1-75.6,54.4-117.4,75.5c-92.3,46.5-190.7,68.9-293.3,75.6
	C110.7,255.9,101.6,256.4,92.1,256.9L92.1,256.9z"/>
<path class="st0" d="M475.1,654.7c19.4-18.2,38.5-36,57.6-53.9c52.5-49.2,105.1-98.4,157.6-147.6c15-14,36.7-16.8,54.6-7.1
	c25.5,13.8,29.9,46.2,8.8,66.1c-51.5,48.3-103.1,96.6-154.7,144.9c-30.5,28.6-61,57.2-91.6,85.7c-14.7,13.7-35.3,17-52.8,8.3
	c-4.1-2-8.1-4.8-11.4-7.9c-41-38.2-81.8-76.4-122.6-114.7c-14.4-13.5-18-31.4-10-47.7c8.1-16.6,27.8-26.9,46-24.3
	c10.7,1.5,19.9,6,27.8,13.4c29.1,27.4,58.4,54.6,87.6,81.9C472.9,652.8,473.7,653.5,475.1,654.7z"/>
</svg>
