<?xml version="1.0" encoding="utf-8"?>
<!-- Generator: Adobe Illustrator 21.0.0, SVG Export Plug-In . SVG Version: 6.00 Build 0)  -->
<svg version="1.1" id="Слой_1" xmlns="http://www.w3.org/2000/svg" xmlns:xlink="http://www.w3.org/1999/xlink" x="0px" y="0px"
	 viewBox="0 0 4000.4 3191.5" style="enable-background:new 0 0 4000.4 3191.5;" xml:space="preserve">
<style type="text/css">
	.st0{fill:#CD6084;}
</style>
<path class="st0" d="M4000.4,2193.5c-4.3,0.1-8.7,0.2-13,0.2H2732.2c-27,229.1-133,411.2-324.1,540.9
	c-136.6,92.8-289.2,132.7-453.8,122.2c-179.4-11.5-335-80.5-464.2-205.6c-129-124.8-201-278.2-219.9-457.3H2.3
	c-2.4-7.6-3.2-115.9-1.2-131.1c7-2.1,1382.7-2.9,1399-0.7c0.2,2.7,0.6,5.6,0.6,8.5v53c0.7,142.8,44.4,270.6,135,381.3
	c88.3,107.9,201.3,176.8,337.6,207.1c51.1,11.4,103.6,15.9,155.9,13.1c130.8-6.9,247.9-50.7,349.7-133.2
	c92.5-75,157.1-169.3,193.8-282.9c14-43.3,23.4-87.5,25.8-133c1.8-34.2,1.5-68.6,2.2-102.9c0.1-3.6,0-7.2,0-11.4
	c4.3-0.2,7.5-0.5,10.8-0.5h1380c3,0,6,0.2,9,0.4L4000.4,2193.5z M1382.4,3191.5c-5.4-1.2-10.8-2.7-16.3-3.7
	c-85-15.1-150.9-82.2-163.2-167.4c-15.9-110.1,60-206.6,162.2-225.1c94.4-17.1,189,35.2,222.9,125.8
	c43.4,115.9-26.3,238.2-142.5,264.7c-9,2-18,3.8-27.1,5.7H1382.4z M1401.3,3057.7c36.6-0.1,66.6-29.3,66.4-65.8
	c-0.3-42.1-34.7-67.1-66.6-66.8c-37.2,0.4-66.8,29.4-66.7,66.4S1364,3057.8,1401.3,3057.7L1401.3,3057.7z M2582.4,3191.5
	c-5.4-1.2-10.8-2.7-16.3-3.7c-85-15.1-150.9-82.1-163.2-167.4c-16-110.1,60.1-206.7,162.2-225.1c95.6-17.3,190.5,36.6,223.6,127.7
	c41.7,114.8-27.2,236.4-143.2,262.8c-9,2.1-18.1,3.8-27.1,5.7H2582.4z M2600.6,3057.7c30.4,1.3,66.8-22.8,66.9-66.1
	c0.1-42.1-34.9-66.9-66.8-66.4c-36.6,0.6-66.2,29.4-66.4,65.8c-0.5,36.4,28.7,66.3,65.1,66.8
	C2599.9,3057.7,2600.3,3057.7,2600.6,3057.7L2600.6,3057.7z"/>
<path class="st0" d="M1534.2,2125.8c0.4-75,9.3-140.1,23.2-204.8c34.4-160,87-314.3,143.9-467.2c64.6-173.6,136.3-344.3,211-513.8
	c71.3-161.9,145.1-322.5,221.7-482c65.9-138,133.4-275.2,202.4-411.6c6.2-12.2,12.6-24.3,24.2-32.5c21.7-15.3,44.8-18.4,68.9-6.9
	c24.5,11.7,37.4,32.1,38,58.8c0.3,13.4-3.6,27-5.7,40.4c-7.8,48-15.9,95.9-23.4,143.9c-6.8,43.7-13.2,87.5-19.3,131.4
	c-5.3,38.6-10.1,77.2-14.8,115.9c-4.6,37.3-9.1,74.7-13.2,112.1c-3.2,28.8-5.9,57.6-8.7,86.5c-3.2,33.8-6.3,67.6-9.3,101.5
	c-1.7,19.9-3.2,39.8-4.5,59.8c-3.3,53.8-6.5,107.7-9.6,161.6c-1,18-1.8,35.9-2.1,53.9c-0.8,65.7-2.3,131.3-1.7,196.9
	c0.4,49,2.7,97.9,5.8,146.8c5,79.1,13.6,157.9,29.5,235.7c7.9,38.5,17.2,76.7,24.5,115.2c10,52.6,19.4,105.4,27.6,158.3
	c7.4,47.7,13.2,95.6,19.3,143.5c2.5,19.5,5.3,39.1,5.6,58.6c0.2,19.7-1,39.3-3.6,58.8c-6.5,52.3-21.3,102.4-45.8,149.2
	c-68.4,130.4-174.3,212.8-317.9,246.2c-34.1,8-69.1,11.6-104.1,10.8c-119-2.6-223.4-43-311.3-123.7
	c-77.5-71.1-125-159.1-143.7-262.5C1535.7,2177,1533.4,2147.1,1534.2,2125.8L1534.2,2125.8z M2270.2,487.3l-1.2-0.5
	c-1.6,3.2-3.4,6.3-4.9,9.5c-22.6,47.6-45.2,95.1-67.6,142.7c-83.6,178.2-164.6,357.6-241.1,539c-46.9,111.1-92.3,222.8-134,335.8
	c-52,140.9-100.5,282.9-132.5,430.1c-13.4,61.8-21.7,123.9-21,187.1c0.7,57.2,14.9,110.7,43.2,160.2
	c77.3,135.2,235.5,198.4,383.9,154.8c119.6-35.2,207.7-131.4,232.8-253.5c4.6-22.5,8.1-45.4,6.1-68.5c-2.6-30.2-6-60.3-10-90.3
	c-5.3-39.6-10.7-79.2-17.4-118.5c-8.9-52.2-18.1-104.3-29-156.1c-13.3-63.2-28.7-125.9-35.7-190.3c-4.7-43-9.5-86-13-129.2
	c-2.9-34.5-4.8-69.1-5.7-103.8c-1.8-65.3-3.8-130.6-1.4-195.9s4.4-130.5,6.9-195.8c0.9-24.3,2.6-48.6,4.4-72.8
	c2.3-32.9,4.9-65.8,7.6-98.6c2-24.6,4.2-49.1,6.5-73.6c2.9-29.8,6-59.6,9.2-89.4c3-27.8,6.2-55.6,9.4-83.4
	C2267.2,513.5,2268.7,500.4,2270.2,487.3L2270.2,487.3z M134.4,2724.9c0.2-146.8,119.9-265.7,267.5-265.2
	c144.7,0.5,265.8,116.2,265.7,266.1c-0.1,151.6-124,266.6-268.1,265.7C252.1,2990.6,133.6,2870.8,134.4,2724.9L134.4,2724.9z
	 M400.7,2858.2c69.9,1.3,132.7-55.4,133.6-131.1c0.9-76.8-62.3-134-132.4-134.4c-73.6-0.4-134.1,60.5-134.1,132.8
	C267.6,2797,327,2859.1,400.7,2858.2z M3334.4,2725.6c0-147.1,119.4-266.2,266.8-265.9c145.2,0.2,266.7,116.2,266.4,266.4
	c-0.3,151.4-123.8,265.9-267.4,265.4C3453.4,2991.1,3334.3,2872.2,3334.4,2725.6L3334.4,2725.6z M3601.1,2858.2
	c70.2,1.1,133.1-56.4,133.2-132.5s-62.9-132.8-132.9-133c-73.3-0.2-133.9,60.6-133.7,133.2
	C3467.8,2797.1,3527.1,2859.3,3601.1,2858.2L3601.1,2858.2z M1000.8,2327.1c108.9-1.3,200,89,200.2,199
	c0.1,107.3-87.7,199.3-199.9,199.5c-106.2,0.2-200-84.5-200.1-199.3C800.9,2409.3,897.7,2325.7,1000.8,2327.1L1000.8,2327.1z
	 M934.4,2526.2c-1,27.9,20.4,65.6,65.8,66.4c37.9,0.6,67.7-28.6,67.4-66.9c-0.3-40.7-33.3-65.9-66.4-66
	c-36.7-0.2-66.6,29.4-66.8,66.1C934.4,2525.9,934.4,2526.1,934.4,2526.2z M3000.9,2327.1c108.9-1.3,200,89.1,200.1,199.1
	c0.1,107.2-87.7,199.3-200,199.4c-106.2,0.1-199.9-84.6-200-199.4C2800.9,2409.2,2897.7,2325.6,3000.9,2327.1z M2934.4,2526.2
	c-1,27.9,20.4,65.6,65.8,66.4c37.9,0.6,67.7-28.6,67.4-66.9c-0.4-40.7-33.3-65.9-66.4-66c-36.7-0.2-66.6,29.4-66.8,66.1
	C2934.4,2525.9,2934.4,2526.1,2934.4,2526.2L2934.4,2526.2z"/>
</svg>
