<?xml version="1.0" encoding="utf-8"?>
<!-- Generator: Adobe Illustrator 21.0.0, SVG Export Plug-In . SVG Version: 6.00 Build 0)  -->
<svg version="1.1" id="Слой_1" xmlns="http://www.w3.org/2000/svg" xmlns:xlink="http://www.w3.org/1999/xlink" x="0px" y="0px"
	 viewBox="0 0 70 61" style="enable-background:new 0 0 70 61;" xml:space="preserve">
<style type="text/css">
	.st0{fill:#FFFFFF;stroke:#CD6084;stroke-width:3;}
	.st1{fill:#CD6084;}
	.st2{font-family:'Roboto-Bold';}
	.st3{font-size:25px;}
	.st4{font-size:15px;}
</style>
<path class="st0" d="M14.5,7.5h41c7.2,0,13,5.8,13,13v26c0,7.2-5.8,13-13,13h-41c-7.2,0-13-5.8-13-13v-26C1.5,13.3,7.3,7.5,14.5,7.5
	z"/>
<path class="st1" d="M22.5,0L22.5,0C23.3,0,24,0.7,24,1.5v13c0,0.8-0.7,1.5-1.5,1.5l0,0c-0.8,0-1.5-0.7-1.5-1.5v-13
	C21,0.7,21.7,0,22.5,0z"/>
<path class="st1" d="M47.5,0L47.5,0C48.3,0,49,0.7,49,1.5v13c0,0.8-0.7,1.5-1.5,1.5l0,0c-0.8,0-1.5-0.7-1.5-1.5v-13
	C46,0.7,46.7,0,47.5,0z"/>
<text transform="matrix(1 0 0 1 17 43)" class="st1 st2 st3">1</text>
<text transform="matrix(1 0 0 1 30 38)" class="st1 st2 st4">год</text>
</svg>
