<?xml version="1.0" encoding="utf-8"?>
<!-- Generator: Adobe Illustrator 21.0.0, SVG Export Plug-In . SVG Version: 6.00 Build 0)  -->
<svg version="1.1" id="Слой_1" xmlns="http://www.w3.org/2000/svg" xmlns:xlink="http://www.w3.org/1999/xlink" x="0px" y="0px"
	 viewBox="0 0 3146.5 3249.8" style="enable-background:new 0 0 3146.5 3249.8;" xml:space="preserve">
<style type="text/css">
	.st0{fill:#CD6084;}
</style>
<path class="st0" d="M0,2400.8v-561c0-60.2,18.6-114.1,55.4-161.3c42.2-54,97.6-86.8,165.2-98.2c12.2-1.9,24.5-2.8,36.8-2.7
	c142.3-0.2,284.7-0.2,427-0.1c40.8,0,79,10,115.3,28.5c6.2,3.1,13,4.8,19.9,4.8c10.1-0.2,16.6-6.9,21.1-16
	c8.6-17.7,17.4-35.2,26.7-52.5c26.8-49.9,59.9-95.2,98.3-136.8c3.3-3.7,6.9-7.2,10.8-10.3c39.3-30.3,72.5-66.7,103.3-105.4
	c55.1-69.3,102.2-143.9,146.3-220.5s84.6-155,122.9-234.5c52.6-109.2,101.6-220.1,147-332.6c14.3-35.5,28.3-71.2,42-106.9
	c10.6-27.6,10.2-27.7,7.3-56.2c-4.1-38.8-4.7-77.8-2-116.8c1.8-25,4.6-49.8,10.5-74.1c7-28.3,17.3-55.3,33.5-79.8
	c22.9-34.7,54.6-57.3,95.4-65.4c14.8-3,30.5-3.2,45.7-2.6c28,1,55.8,4.2,83.1,10.8c141.3,34.3,238.1,118.2,286.5,256.4
	c13.6,38.9,20.5,79.1,24,120.1c2.8,34.9,3.1,69.9,1,104.9c-3,53.6-11.1,106.6-22.2,159.1c-13.7,64.6-34,127.3-54.1,190.1
	c-26,81.2-48.5,163.4-64.4,247.2c-7.3,38.3-12.8,76.9-12.4,116c0,4.6,1,9.2,1.5,13.8c1.4,14.2,14.8,24.2,31.8,20.4
	c16.3-3.6,32.4-7.4,48.8-10.5c59.2-11.1,118.3-23.2,177.8-32.3c50-7.6,100.5-12,150.8-17c63.1-6.2,126.4-7.3,189.7-5.4
	c69,2,137.6,8.9,204.7,25.9c59.1,15,115.7,36.7,165.9,72.1c70.3,49.6,118.8,115.1,139.3,199.5c9,37.2,9.5,75.2,6.3,113.3
	c-3.1,37.5-12.3,73.5-26,108.4c-4.9,12.7-2.8,23.5,5.4,34.5c32.9,44,57,92.4,70.2,145.8c4.6,19.4,7.7,39.2,9.2,59.1
	c6.6,80.2-14,153.8-55.8,221.9c-9,14.7-18.6,29.3-29.3,42.9c-9.2,11.6-10.7,23-5.8,36.3c8.1,21.9,14.2,44.4,18.1,67.4
	c7.1,43,8.9,86,3.7,129.4c-10,83.4-44.9,155.5-99.1,218.7c-13.6,15.9-28.7,30.6-43.7,45.3c-7.5,7.4-10.9,15.6-10.1,25.9
	c1,11.3,2,22.6,2.7,33.9c3.3,52.4-2.6,103.7-20.2,153.4c-23.7,67.2-63.2,123.5-116.8,170.2c-53.3,46.4-114.7,78.5-180.1,103.5
	c-67.1,25.7-136.5,42.6-207.7,52.7c-39.9,5.7-80,9.4-120.2,12.2c-68.3,4.7-136.6,4.4-204.9,2.7c-38.6-1-77.2-3.6-115.8-5.7
	c-12-0.6-23.9-2.1-35.8-2.8c-6.6-0.3-13.3,0.5-20,0.5c-55.3,0-110.7,0.5-166-0.1c-47-0.5-94-1.9-140.9-3.7
	c-53.9-2.1-107.8-4.9-161.7-8c-38.6-2.2-77.1-4.8-115.6-7.9c-49.4-4-98.9-8.5-148.3-13.2c-41.1-3.9-82.2-8-123.2-12.7
	c-46.6-5.3-93.2-11.4-139.8-17.1c-17.5-2.1-35.1-4-52.6-6.3c-11.4-1.5-21.3,0.9-31.1,7.4c-33.2,22-69.3,36.8-109.1,41.8
	c-10.6,1.4-21.2,2.1-31.9,2.2c-142.7,0.1-285.3,0.5-428-0.1c-65-0.3-121.4-24.1-169.8-67.3c-40.2-36-66-80.6-79.5-132.5
	c-5.6-21.7-7.3-44-7.3-66.4C0,2771.4,0,2586.1,0,2400.8z M2150.7,3114c49.3-0.2,98.6-2.1,147.8-6c44.9-3.6,89.4-9.3,133.4-18.6
	c55.8-11.8,110.8-26.4,163-49.8c50-22.5,95.8-51.1,132.7-92.3c41.9-46.6,62.1-101.7,64.1-163.9c0.9-28.9-4.1-57-11.7-84.8
	c-6.1-22.2-2.6-43.1,11.7-61.4c5.3-6.7,12.1-12.4,18.9-17.7c30.9-24.2,58.7-51.2,81.6-83.2c36-50.2,53.8-106.1,51.5-167.8
	c-1.7-46.2-13.9-89.9-35-131.2c-3.9-7.6-7.4-15.8-8.9-24.1c-4.4-23.8,3.7-43.9,20.2-60.9c19.2-20,36.3-41.8,51.1-65.3
	c21.3-33.4,34.7-69.9,38.5-109.3c4.5-46.8-7.1-90.6-29-131.8c-15.3-28.7-34.8-54.3-57.9-77.4c-15.8-15.8-22.3-34.9-19.6-57.3
	c1.5-12.4,7.9-22.4,13.6-32.9c25.5-46.9,40.4-96.4,35-150.3c-3-29.8-11.9-57.9-28.2-83.4c-26.6-41.6-64.1-69.9-108.9-89.2
	c-42.5-18.3-87.3-28.3-132.8-35.6c-58-9.4-116.6-12.1-175.3-11.5c-45,0.4-89.9,2-134.7,6.8c-33.4,3.6-67,6.2-100.2,11.3
	c-43.7,6.7-87.2,15.3-130.7,23.4c-33.4,6.3-66.6,13-99.9,19.8c-18.9,3.9-37.4,9.9-56.4,12.6c-39.2,5.6-73.8-4.8-102.6-33
	c-16.1-15.8-26.6-34.8-34.5-55.5c-9.5-24.9-12.5-51.1-13.6-77.4c-2.5-59.3,5.5-117.6,16.8-175.6c14.9-76.9,36.4-152.1,60.1-226.7
	c19.7-62.2,40-124.2,54.1-188c11.2-50.8,19.7-102,22.2-154c2.4-48.5-1.5-96.5-13.8-143.6c-11.7-44.7-31.8-84.8-64.8-117.6
	c-51.8-51.4-116.3-71.8-187.3-75.4c-13.5-0.7-22.9,6.2-27.8,18.6c-2.3,5.9-4.2,11.9-5.7,18.1c-4.9,18.8-7.3,37.8-8.7,57.2
	c-2.9,40.2-1.5,80.7,4.1,120.6c2.6,19,3.3,37.1-3.8,55.9c-38.3,100.9-78.5,201-121.8,299.9c-63.1,144.5-131.2,286.5-209.6,423.4
	c-50.9,88.8-105.4,175.3-170.5,254.7c-27.7,33.8-56.8,66.3-89.8,95c-15.8,13.8-31.4,27.6-44.7,44.2
	c-52.2,64.8-90.3,139.8-111.9,220.2c-2,7.1-1.9,14.6,0.3,21.6c7.9,26.7,10.4,54.1,10.4,81.9c-0.1,368.6-0.1,737.3,0,1105.9
	c0,21.7-1.4,43.2-5.3,64.6c-2.3,12.6,5.3,24.9,17.2,27.8c3.5,1,7.1,1.8,10.7,2.3c34,4.1,68.1,8.4,102.1,12.2
	c40.7,4.5,81.4,8.7,122.2,12.6c48.7,4.7,97.5,9.1,146.3,13.1c38.5,3.1,77,5.8,115.6,8c53.6,3,107.1,5.8,160.7,7.9
	c40,1.6,80,2,119.9,2.9c10.3,0.2,20.7,0.7,31,0.8c39.6,0,79.3,0,119-0.1c19.3-0.1,38.7-1.2,58-0.3c35.9,1.7,71.8,5.1,107.7,6.8
	C2081.4,3112.7,2116.1,3113,2150.7,3114L2150.7,3114z M805.9,2400.5v-548.9c0-5.3,0.2-10.7-0.1-16c-1.8-32.4-12.7-61.2-35.7-84.6
	c-24.8-25.3-55.5-37.6-90.7-37.7c-136.6-0.2-273.3,0-409.9-0.2c-15.5,0-30.6,1.5-45.3,6.2c-41.4,13.2-68.9,40.6-82.1,81.9
	c-4.9,15.3-6.5,31.1-6.5,47.3c0.2,367.6,0.2,735.2,0,1102.9c0,15.8,1.6,31.3,6.3,46.3c12.4,40.3,38.9,67.5,78.5,81.7
	c16.4,5.9,33.6,6.7,51.1,6.7c134.6-0.4,269.3-0.1,404-0.3c9.6,0,19.3-0.8,28.8-2.6c34.1-6.3,60.8-24.4,80.3-53
	c15.1-22.2,21.3-47.1,21.3-73.7C806,2771.1,806,2585.8,805.9,2400.5L805.9,2400.5z"/>
</svg>
