<?xml version="1.0" encoding="utf-8"?>
<!-- Generator: Adobe Illustrator 21.0.0, SVG Export Plug-In . SVG Version: 6.00 Build 0)  -->
<svg version="1.1" id="Слой_1" xmlns="http://www.w3.org/2000/svg" xmlns:xlink="http://www.w3.org/1999/xlink" x="0px" y="0px"
	 viewBox="0 0 3500.5 3501.1" style="enable-background:new 0 0 3500.5 3501.1;" xml:space="preserve">
<style type="text/css">
	.st0{fill:#CD6084;}
</style>
<path class="st0" d="M1460,3501.1c0-70.7,0-141.3-0.1-212c0-141,0-282,0.1-423c0.1-49.6-12.3-95.3-37.9-137.8
	c-53.3-88.1-106-176.5-159.1-264.7c-2.7-4.5-6.3-8.5-10.5-11.7c-139.8-105.1-279.7-210.2-419.6-315.2
	c-42.8-32.2-103.8-29.8-142.3,9.2c-45.1,45.7-40.2,121.8,11.3,160.4c34.7,25.9,70.3,50.6,105.6,75.8l248.9,177.9
	c2.7,1.9,5.2,3.9,8.3,6.3l-84.2,117.9c-2.6-1.6-4.6-2.6-6.4-3.9c-119.3-85.2-238.8-170.1-357.8-255.8
	c-57.4-41.4-91-98.2-101.7-168.1c-7-46.1-1.2-91,16.9-134.1c0.8-1.8,1.6-3.7,2.3-5.6c0.2-0.9,0.3-1.7,0.3-2.6
	c-1.7-1.5-3.5-3.3-5.6-4.9c-66.9-50.2-133.8-100.3-200.8-150.4c-16.1-12-28.3-26.4-32.4-46.4c-1.5-7.4-1.7-15.2-1.7-22.8
	c-0.1-138.7-0.1-277.3-0.1-416c0-41-8.7-80-27.8-116.4c-24.7-47.2-60.9-82.9-108.4-107.1c-2.6-1.3-5.4-2.4-8.9-4
	c-0.3,3.3-0.6,5.8-0.6,8.3c0,335.3,0.1,670.6,0.2,1005.9c0.1,77.3,33,140.1,92.1,189.4l298,248.4c61.4,51.2,123,102.2,184.2,153.8
	c75.9,64,138.5,139.2,187.8,225.5c49,85.5,82.3,176.8,99.2,273.8c5.3,30.4,8.1,61.4,10.9,92.2c1.7,19.2,1.3,38.6,1.9,57.9H876
	c1.3-29-1-58-4.6-86.7c-6.7-55.6-20.1-110.2-40-162.5c-43.5-114.5-111.8-211.6-205.6-290.5c-74-62.2-148.1-124.1-222.6-185.8
	c-70.7-58.9-141.3-117.8-212-176.6c-22.5-18.8-45.7-36.9-66.9-57.1C54.2,2474.9,13.9,2393,3.6,2296.2c-0.5-5.1-2.4-10.1-3.6-15.1
	v-1124c1.4-2.9,3.2-5.7,4-8.8c9.1-33.2,39.7-54.6,71-53.9c24,0.5,48,0.2,72,0.1c9.7,0,19.3,1.7,28.3,5.1
	c117.1,42.9,197.5,122.8,241.2,239.7c13.2,35.3,20.5,72.6,21.8,110.2c0.6,18.3,1.1,36.6,1.1,55c0.1,115,0.1,229.9-0.1,344.9
	c0,7.8,2.3,12.6,8.6,17.3c59.1,43.9,118,88.1,176.7,132.5c5.4,4.1,9.2,4.3,15,1c45.2-26,94.1-36.7,145.9-32.6
	c48.3,3.8,92.1,20.5,130.9,49.6c146.1,109.6,292.1,219.1,438.1,328.7c9.7,7.1,17.8,16.1,24,26.4c56.7,94.6,113.4,189.1,170.2,283.6
	c29.8,49.2,48.5,104.3,54.8,161.4c1.7,15.9,2.4,31.9,2.3,47.9c0.1,207.6,0.2,415.2,0.1,622.8c0,4.3,0.1,8.7,0.2,13L1460,3501.1z
	 M2480,3501.1c0.5-12,1.1-23.9,1.5-35.9c2.9-85.2,19.1-167.9,47.5-248.2c38.2-108.2,96-204.8,173.2-289.7
	c32.8-36.1,69.2-68.3,106.7-99.4c70.5-58.5,140.9-117.2,211.2-176c78.1-65.1,156-130.4,234.3-195.1c29.4-24.3,55.1-51.1,72.8-85.3
	c15.2-29.4,24.8-60.3,27-93.3c0.8-12,1.3-24,1.3-35.9c0.1-327.3,0.1-654.6,0.1-981.9v-14.2c-3.8,1.4-6.6,2.1-9.1,3.4
	c-72.6,37.9-117.1,96.8-132.9,177.2c-3.4,17.1-3.9,34.3-3.9,51.7c0,137-0.2,274,0.2,411c0.1,29.4-10.9,51.7-34.5,69.2
	c-65.6,48.6-130.7,97.8-196,146.8c-3.4,2.6-6.8,5.2-10.8,8.3c1.4,3.7,2.5,7.1,3.8,10.4c13.5,32.8,20.4,67.1,18.8,102.4
	c-3.7,83.3-38.7,150.9-106.6,199.8c-117.3,84.5-235.3,168.2-353,252.2c-2.7,1.9-5.5,3.7-8.9,6l-84.3-118.1c3-2.4,5.4-4.5,8-6.4
	c116.6-83.3,233.2-166.6,349.8-249.8c23-16.4,38.1-37.9,44.6-65.3c15-63.5-32-126.5-97.1-130.4c-28.2-1.7-53,6.5-75.5,23.5
	c-115,86.5-230.2,172.9-345.4,259.2c-23.7,17.8-47.4,35.6-71.2,53.3c-5.1,3.8-9.3,8.5-12.5,13.9c-53,88.6-106.2,177.2-159.4,265.7
	c-23.5,39.1-36.3,81.3-36.3,127.1c-0.1,212.3-0.1,424.6,0,636.9c0,2.3,0.4,4.6,0.6,6.9h-146c-0.1-3.3-0.4-6.6-0.4-10
	c0-209,0-417.9-0.2-626.9c-0.1-65.6,13.8-127.7,44.4-185.5c15.9-30,34.2-58.7,51.6-87.9c42.9-71.8,86.1-143.4,128.9-215.2
	c7.5-12.6,17.4-23.6,29.2-32.3c143-107,285.9-214.2,428.6-321.4c31.1-23.4,64.8-40.7,102.9-48.9c60.6-13.1,118.5-5.1,173.5,23.4
	c4.7,2.4,9.4,5,14.3,7.6c2.9-2,5.7-3.8,8.3-5.8c58.9-44.2,117.9-88.3,176.8-132.4c5.6-4.2,7.9-8.5,7.9-15.7
	c-0.2-127-0.3-254-0.1-380.9c0.2-82.4,24.1-157.5,71.5-224.8c48.5-68.8,113-116.9,192.5-144.8c8.1-2.9,16.7-4.6,25.3-4.9
	c26-0.6,52-0.6,78-0.1c29.9,0.6,56.3,19.9,65.8,48.3c1.7,5,2.3,10.3,2.9,15.6c0.4,4.3,0.5,8.7,0.3,13c0,361.9,0.1,723.9,0.2,1085.8
	c0.1,90.1-27.8,170-82.2,241.1c-19.3,25.3-42.3,47-66.7,67.3c-87.1,72.4-174.1,144.9-261.1,217.5c-69.6,58-139.4,115.8-208.9,174.1
	c-122.5,102.8-201.9,232.2-237.9,388.1c-9.2,39.6-14.6,80-16.2,120.6c-0.4,11.6-1,23.3-1.5,34.9L2480,3501.1z M1750.9,106.5
	c3.7-4.3,6-7.2,8.5-9.8c45-47.8,99.6-79,164.2-90.8c68.3-12.4,134.9-5.9,197.8,25.2c53.4,26.5,107,52.7,159.2,81.5
	c95.5,52.7,180.4,119.7,255.6,198.6c97.8,102.1,175.2,221.9,228,353.1c30.8,76,53,155.2,66.1,236.1c8.1,49.7,13.6,99.7,14,150
	c0.3,31.6,0.8,63.3-1,94.9c-4.8,88.5-20.3,176.2-46,261c-45.1,148.7-117.6,282.4-217.6,401.3c-82.1,97.5-178.5,178.3-288.1,243.4
	c-52.4,31.1-104.5,62.8-156.9,94.1c-56.8,33.9-118.5,47.8-184,41.4c-74.8-7.4-138.4-39.1-190.3-93.7c-2.5-2.6-5.1-5.3-7.6-7.9
	c-0.9-0.5-1.8-1-2.7-1.4c-1.2,2-2.5,3.9-4,5.7c-49.9,53.7-110.9,86.6-183.9,96c-68.7,8.9-133.4-4.1-193-39.6
	c-64.7-38.5-129.5-76.9-193.3-116.8c-79-49.4-149.8-109-213.4-177c-111.3-119-193.2-255.8-245.6-410.2
	c-22.5-66.6-38.7-135.1-48.4-204.8c-9.3-65.4-12.6-131.4-10-197.4c6.1-150.9,40.8-295,105.1-431.9c61.2-130,144.3-244,249.5-342
	c76.6-71.5,163.1-131.7,256.8-178.7C1305,69.2,1340.3,52,1375.2,34c54.3-28,112.2-37.7,172.5-32.5c78.3,6.8,144.4,39.5,197.8,97.4
	C1747.3,100.9,1748.6,103.3,1750.9,106.5L1750.9,106.5z M2187.6,1750.5h-143.9c-1.2-9.2-2-18.1-3.6-26.9
	c-9.6-52.9-34.6-96.8-76.5-130.8c-31.4-25.4-67.7-40.7-106.8-49.8c-10.3-2.4-20.7-4.2-32-6.5c-0.2,4.1-0.5,7-0.5,9.9
	c0,113.3,0,226.7,0.1,340c0.1,36.5,11.3,69.6,34.6,97.9c32,39,73.8,58.3,124.1,58c28.8-0.2,55.6-9.1,80.3-24.1
	c49.3-29.9,98.6-59.8,148.3-89c90.6-53.3,171.3-118.6,241.1-197.4c87.6-98.8,152.6-210.7,195-335.7c32.2-94.6,48.9-192.1,51.5-292
	c0-1.2-0.5-2.5-1-4.5c-6.5,1.1-12.7,2-18.8,3.3c-100.9,20.7-176.3,75.5-224.1,167.3c-25.9,49.6-40.3,102.7-45.6,158.3
	c-0.9,9.8-1.7,19.7-2.6,29.7h-144.4c-0.4-1.4-0.6-2.9-0.7-4.3c0.8-15.6,0.9-31.3,2.6-46.9c5.5-52.4,18.1-103.8,37.4-152.8
	c37.6-94.9,96-173.2,182.3-229.3c1.6-1.3,3.2-2.6,4.6-4.1c-3.2-2.2-5.6-4-8-5.6c-35.4-23.3-67.3-51.6-94.6-84
	c-42.7-50.6-73.3-107.8-94.2-170.4c-18-53.7-28.4-108.8-30.1-165.5c-0.1-3.6,0-7.2,0-10.5c10.6-2.2,137.9-1.9,145.4,0.2
	c0.1,1.5,0.4,3.2,0.5,4.8c1.4,42.3,8.9,84.2,22.1,124.4c15.1,46.5,37.5,89,70,125.7c45,51,101.8,81.8,167.6,97
	c6.6,1.5,13.3,2.7,20.6,4.1c0-2.8,0.1-4.1,0-5.3c-0.1-2-0.3-4-0.6-6c-8.2-49-19.3-97.3-34.6-144.6
	c-42.4-130.8-109.4-247.5-201-350.2c-67.5-75.3-144.3-139.5-232.4-189.2c-53.3-30-108.6-56.9-163.3-84.3
	c-35-17.5-72.7-19.6-110.3-11.4c-71.9,15.8-121.5,78.6-121.7,152.4c-0.2,112.7-0.2,225.3-0.1,338v9.9c3.1,0,5.1,0.3,7,0
	c26.3-4.6,52.1-11.1,76.6-22c72.9-32.2,118.2-86.7,132.6-165.8c1.5-8.1,2.2-16.3,3.3-24.2c14.3-2.1,137.3-1.4,144.7,0.9
	c0.2,2.9,0.2,5.8,0,8.7c-2,17.8-2.9,36-6.6,53.4c-21.3,99.3-74.1,177.3-159.8,232.2c-52.2,33.4-109.9,51.9-170.8,61.3
	c-8.8,1.3-17.6,2.7-26.5,4v590c3,0.6,5.5,1.4,8.1,1.7c38.8,4.3,76.8,13.2,113.5,26.6c67.5,24.9,124.7,64.3,168.6,121.8
	c41.2,54,65,115,72.6,182.4C2188.5,1730.8,2187.7,1740.2,2187.6,1750.5L2187.6,1750.5z M1677.8,651.4c0.2-3.4,0.5-5.7,0.5-8
	c0-115,0.5-230-0.2-345c-0.3-50.6-22-92-62.9-121.4c-53-38.1-110.8-40.8-169.6-14.6c-37.1,16.6-72.9,36-109.2,54.3
	c-118.8,60-221,141-306.5,242.9C916.7,595.2,846.1,750.4,816.4,924.4c-0.9,5.3-1.3,10.7-2,17.1c10.6-2.4,19.7-4.2,28.7-6.5
	c72.2-18.6,132-56.4,176.2-117c45.8-62.8,67.7-134.4,74.8-211.1c0.7-7.5,1.2-15.1,1.8-22.7h144.8c0.2,3,0.8,5.2,0.6,7.5
	c-1.6,19.9-2.6,39.9-5.1,59.7c-7.3,58.6-23.8,115.7-49,169.1c-38.3,81.8-93.7,149.2-170.3,198.2c-1.1,0.7-2.6,0.9-4.8,1.6
	c4.1,2.9,5.7,4.1,7.3,5.1c69.7,45.1,121.7,106,159.4,179.5c27,52.5,45.4,109,54.6,167.4c4.1,25.9,5.4,52.3,7.8,78.5
	c0.2,2.5-0.6,5.1-0.8,7.4c-19.8,2-137.2,1.1-144.5-1c-0.5-5.5-1.2-11.1-1.5-16.8c-2.2-37.6-9.2-74.8-20.9-110.6
	c-16.3-50.8-41.2-96.8-78.1-135.7c-42-44.3-93.6-72-152.5-86.9c-12.5-3.2-25.2-5.4-38.3-8.1c-0.3,2.3-0.5,4.7-0.6,7
	c0.5,11.6,1.1,23.3,1.6,34.9c1.9,37.6,6.2,75,13,112c19.3,107.4,55.1,209.1,108.3,304.5c74.5,133.5,173.8,245.2,300.9,330.2
	c71.7,47.9,146.6,91,220.6,135.3c30.4,18.2,64.4,23.3,99.4,17.4c83.1-14,131-85.1,130.7-154c-0.6-113-0.2-226-0.2-339v-10.1
	c-1.7-0.1-3.3-0.1-5,0c-25.6,4.6-50.8,10.6-74.8,20.9c-77.5,33.2-124.3,90.4-137,174.4c-0.9,5.8-1.6,11.6-2.3,17.2h-144.6
	c-0.2-2.3-0.6-4-0.4-5.6c1.8-16.9,2.5-34,5.7-50.5c22-111.5,82.2-195.8,181.6-251.3c47.7-26.6,99.2-41.8,153.1-49.7
	c7.8-1.1,15.5-2.4,23.3-3.6v-590c-3.7-0.7-6.9-1.5-10.2-1.9c-38.4-4.4-76.1-13.4-112.4-26.8c-64.4-24-119.6-61.3-162.6-115.5
	c-46.2-58.3-71.9-124.7-78.2-198.8c-0.5-5.8-0.1-11.7-0.1-18.3h144.1c0.5,0.6,0.9,0.8,0.9,1.1c0.3,1.6,0.5,3.3,0.6,4.9
	c2.1,25.6,8.6,50.6,19.2,74c23,50.5,61,85.8,111.2,108.6C1617.9,639.1,1646.8,646.8,1677.8,651.4L1677.8,651.4z"/>
</svg>
