<svg width="63" height="66" viewBox="0 0 63 66" fill="none" xmlns="http://www.w3.org/2000/svg">
<path d="M26.25 60.4571H36.75H26.25ZM13.125 24.732C13.125 19.6302 15.0609 14.7373 18.5069 11.1297C21.9529 7.52213 26.6267 5.49542 31.5 5.49542C36.3734 5.49542 41.0471 7.52213 44.4931 11.1297C47.9391 14.7373 49.875 19.6302 49.875 24.732C49.8767 27.8293 49.1612 30.8809 47.7896 33.6252C46.4181 36.3696 44.4315 38.725 42 40.4895L40.5773 47.5411C40.3889 48.8409 39.7618 50.0269 38.8096 50.884C37.8575 51.7412 36.6434 52.2126 35.3876 52.2129H27.6124C26.3566 52.2126 25.1425 51.7412 24.1904 50.884C23.2383 50.0269 22.6111 48.8409 22.4228 47.5411L21 40.5198C18.5677 38.749 16.581 36.3881 15.2097 33.6388C13.8383 30.8895 13.123 27.8336 13.125 24.732V24.732Z" stroke="#FFF500" stroke-width="2" stroke-linecap="round" stroke-linejoin="round"/>
<path d="M21 41.2213H42" stroke="#FFF500" stroke-width="2" stroke-linecap="round" stroke-linejoin="round"/>
</svg>
