<svg xmlns="http://www.w3.org/2000/svg" viewBox="0 0 3000 3050"><linearGradient id="a"><stop offset="0%" stop-color="#f7ca6a"/><stop offset="100%" stop-color="#f9b87b"/></linearGradient><path d="M2074.9 2897.7c-19.8.8-38.1-5.7-56.8-9.9-7-1.6-13.4-5.6-20.1-8.4-21.5-9-43-18-64.6-26.8-29.1-11.8-59.4-17.2-90.7-14.3-52 4.8-95.7 26.6-130.5 65.7-17.3 19.4-34.1 39.2-51.3 58.8-78.3 89.3-213.7 90-292.9 1.6-16.5-18.4-32.8-36.8-49.2-55.3-28.5-32.2-63.8-53.3-105.9-62.1-39.3-8.3-77.9-5-115.1 10.6-24.6 10.3-49 20.9-73.5 31.4-27.3 11.6-55.7 16.9-85.5 15.7-41.3-1.6-77.9-15.6-110.5-40.4-32.2-24.5-54.4-56.5-66.5-95.1-8.4-26.9-15.2-54.4-24-81.1-25.7-77.7-79.6-123.2-159.9-137.5-8.8-1.6-17.9-1.8-26.9-2.2-23.6-1-47.3-1.4-70.9-2.6-94.4-4.9-169.8-77.7-182.5-166.6-3.2-22.3-2.5-44.5 1.5-66.6 2.1-11.9 3-24.1 5-36 1.7-10.4 4.3-20.7 6.3-31.1 16-82.6-23.9-168.1-100.2-208.7-21.8-11.6-43.5-23.2-65.1-35-52.3-28.6-86-71.6-99.8-129.7-13.4-56.2-2.1-107.9 29.7-155.5 14.4-21.6 29.9-42.5 44.8-63.8 23.2-33.1 35.5-70 35.8-110.4.3-43.8-12.2-83.9-38.1-119.4-15.5-21.3-31.3-42.4-46.5-63.8-25.3-35.7-37.6-75.6-35.6-119.3 3.2-71.2 36.1-125.2 96.6-162.2 23.3-14.2 47.6-26.7 71.3-40.4 48.3-27.9 79.6-69 93.5-123 8.1-31.8 6.9-63.8.3-95.8-5.2-25.4-10.1-51-13.4-76.7-1.9-14.7-1.7-30 0-44.8 9.5-83.7 65.9-134.6 113.7-155.3 15.3-6.6 31.1-10.9 47.6-13.8 21.5-3.8 43-3.4 64.5-5.3 14.9-1.3 30.1-.5 44.9-2.5 35.2-4.8 67.6-17.2 95.8-39.2 34.8-27.2 57.8-62.2 69.5-104.7 6.7-24.4 12.7-49 20.1-73.2 24.1-79.1 77.3-126.2 158.2-142 17-3.3 34.4-3.4 51.8-1.1 21.5 2.9 42.1 8.5 62 17.3 22.1 9.7 44 20.1 66.7 28.3 23.4 8.5 47.9 13.4 73.1 12.4 56.7-2.1 104.6-23.6 142.7-66 16.9-18.8 33.4-38.1 50-57.3 32.2-37.4 72.5-60.4 121.3-67.3 33.8-4.8 66.5-.9 98.8 11.8 32.7 12.8 58.7 33.4 81.2 59.4 14.4 16.6 29.1 33 43.9 49.3 38.7 42.3 86.7 63.9 144.2 64.9 26.3.4 51.5-5 75.6-15 24-10 47.8-20.3 71.7-30.6 24.7-10.7 50.5-16.6 77.5-16.6 86.7-.1 161.8 55 187.1 137.2 7.9 25.7 14.6 51.8 22.7 77.4 22.3 70.7 69.3 115.9 140.8 135.8 12.5 3.5 25 5.3 37.9 5.7 27 .7 53.9 2 80.9 3.4 24.1 1.3 46.7 7.5 69 17.5 41.1 18.3 71.1 47.6 91.9 86.6 18.1 33.9 26.2 70.3 21.4 108.8-2.4 19-7 37.6-9.8 56.5-3.8 25.8-8.3 51.4-7.1 77.8 1.5 33.4 11.8 63.8 29 92 17.4 28.4 40.8 50.9 69.9 67.1 23 12.8 46.4 24.9 69.4 37.5 54.4 29.7 88.7 74.8 100.9 135.6 10.9 54.2.1 104.6-31.3 150.3-14.5 21.1-29.5 42-44.3 63-15.3 21.8-26.1 45.6-31.5 71.8-11.4 55.7-1.3 107.1 30.9 153.9 15.1 22 31.3 43.1 47 64.7 25.2 34.8 39 73.7 38.1 116.7-1.5 73.6-33.9 130.3-97.1 168.5-22.2 13.4-45.3 25.5-67.9 38.3-55 31.1-88.3 77.8-99.8 139.9-4.7 25.2-2.9 50.4 2 75.5 4.6 23.4 9.5 46.8 12.9 70.4 2.4 16.6 4 33.4 2.5 50.5-7.6 84.1-68.1 155.2-151.8 173.3-18.4 4-37.6 4.6-56.5 6.1-20.6 1.7-41.3 1.9-61.8 4-82.8 8.4-145.9 67.7-166.2 140.8-6.8 24.4-13 48.9-20.1 73.2-22.6 77.2-73.1 125.2-151.5 143.1-13.2 2.5-27.4 2.7-41.2 4.3z" fill="url(#a)"/></svg>