<?xml version="1.0" encoding="utf-8"?>
<!-- Generator: Adobe Illustrator 21.0.0, SVG Export Plug-In . SVG Version: 6.00 Build 0)  -->
<svg version="1.1" id="Слой_1" xmlns="http://www.w3.org/2000/svg" xmlns:xlink="http://www.w3.org/1999/xlink" x="0px" y="0px"
	 width="6000px" height="6000px" viewBox="0 0 6000 6000" style="enable-background:new 0 0 6000 6000;" xml:space="preserve">
<style type="text/css">
	.st0{fill:#CD6084;}
</style>
<path class="st0" d="M6004,556v3508c-1.3,2.9-2.9,5.7-3.8,8.7c-1.9,6.4-2.7,13.1-5.2,19.2c-30.1,75.5-84.5,122.8-164.1,140.7
	c-20.4,4.6-41,4.1-61.7,4.1H3769.8c-7.3,0-14.7-0.2-22,0.1c-3.8,0.2-7.5,1.4-12.2,2.3c-0.2,8-0.5,15.3-0.5,22.5c0,42,0.1,84-0.1,126
	c-0.1,11.3-0.5,22.7-2.1,33.9c-12.7,87.4-60.7,147.4-142.3,180.4c-24.3,9.8-49.9,14-76.2,13.9c-46-0.1-92-0.1-138,0.1
	c-6.4,0-13.4-1.9-18.9,3c-2,16.7-3.4,629.4-1.4,679.8c0.1,3.2,0.9,6.4,1.3,9.8c8.2,3.6,16.3,2.2,24.1,2.3
	c100.6,0.1,201.3,0.1,301.9,0.1c28.7,0,57.3,0.1,86,0c22.9-0.1,45.1,3.8,66.8,11c89.4,29.9,150.2,112.8,151.4,207.4
	c0.5,43.3,0.1,86.6,0.1,130c0,45.3-0.1,90.6,0.1,136c0,6.4-1.9,13.3,3.7,20.1c6.6,0.2,13.8,0.5,21,0.5h181.9c25.3,0,50.7,0.2,76,0
	c13.6-0.1,26.6,2.3,38.8,8c35.3,16.3,55.1,44.3,56.8,82.7c1.7,38.5-15.9,67.9-49.3,87.5c-5.6,3.3-13,3.4-16.7,9.8h-812
	c-5.2-2.7-10.4-5.5-15.7-8.1c-32.1-15.5-61.5-52.8-51-105.1c8.5-42.6,46-73.2,89.8-74.7c6.7-0.2,13.3-0.1,20-0.1
	c81.3,0,162.6,0.1,243.9-0.1c7.1,0,14.7,2.2,22.2-3.7c0.3-5.2,0.8-11.2,0.8-17.1c0.1-84,0-167.9,0-251.9c0-4.7,0-9.4-0.5-14
	c-2.1-17-13.2-27.5-30.4-28.8c-7.3-0.5-14.7-0.2-22-0.2H2267.7c-6.7,0-13.4-0.3-20,0.4c-15.8,1.8-26.5,13.1-28,29
	c-0.5,5.3-0.3,10.7-0.3,16v143.9c0,36-0.1,72,0.1,108c0,5.7-1.6,12,4.2,18.1c7.6,0.1,16.1,0.3,24.7,0.3H3112c8,0,16-0.1,24,0.1
	c45.1,1.2,83.1,32.4,91.6,75.1c8.7,44.2-12.6,86.5-53.4,105.8c-4.7,2.2-9.4,4.7-14.1,7.1h-1440c-5.3-2.7-10.5-5.4-15.8-8
	c-39.4-19.4-60.2-61.8-51.5-105c8.5-42,46-73.3,89.8-74.9c6.7-0.2,13.3-0.1,20-0.1c81.3,0,162.7,0.1,244-0.1
	c7.1,0,14.7,2.1,22.4-3.6c0.2-5.9,0.5-12.5,0.5-19.1c0.1-30,0-60,0-90c0-56.7-0.6-113.3,0.2-170c1-74.8,31.3-135.5,91.6-180.2
	c38.1-28.2,81.3-42.1,128.9-42c71.3,0.1,142.7,0,214,0c58,0,116,0.1,174-0.1c7.1,0,14.7,2,22.6-3.7c0.1-7.1,0.3-15,0.3-22.9v-641.9
	c0-4.7,0.2-9.4-0.2-14c-0.3-3.7-1.4-7.4-2.5-12.3h-22.7c-45.3,0-90.7,0.4-136-0.2c-95.4-1.1-179.8-64.9-207.8-156.2
	c-6.7-21.9-9.4-44.3-9.4-67c0-44,0-88-0.1-132c0-7.2,1.6-14.7-3-21.8c-8.7-3.8-18.1-1.9-27.3-1.9c-665.3-0.1-1330.6-0.1-1995.8-0.1
	c-11.3,0-22.7,0.1-34-0.2c-38.2-0.8-73.7-11.3-106.1-31.2c-57-35.1-91.9-85.8-104.2-151.7c-1.2-6.6-1.9-13.3-7.9-17.7
	C4,2885.3,4,1734.7,4,584c7.8-4.2,6.7-12.3,8.3-19.3c20.3-90,74.6-148.1,163.4-173.4c22-6.3,44.6-7.1,67.3-7.1
	c499.6,0.1,999.2,0.1,1498.8,0.1c7.3,0,14.7,0.2,22-0.1c3.8-0.1,7.5-1.1,12.3-1.9c0.2-8.1,0.5-15.4,0.5-22.6
	c0.1-44.6-0.5-89.3,0.2-133.9c1-62.2,23.6-115.5,68.5-158.9c28.9-27.9,63.1-46.2,102.3-55.7c8.2-2,17.4-1,24.4-7.2h2072
	c7.1,6,16.3,5.1,24.5,7c39.9,9.5,74.8,28.1,104,56.7c44,43.1,66.8,95.6,67.4,157.3c0.5,46,0,92,0.2,138c0,6.5-1.7,13.3,2.8,19.9
	c8.8,2.5,18.2,1.3,27.4,1.3c500.5,0.1,1001.1,0.1,1501.6,0c18,0,35.9,0.6,53.8,3.5c84.6,13.9,155.8,80.4,175,163.7
	C6001,553.1,6002.9,554.5,6004,556L6004,556z M1241.1,2285.3c4.7-8.9,8.1-15.4,11.4-21.9c49.2-98.3,98.4-196.7,147.6-295
	c3.3-6.6,6.4-13.2,10-19.6c14.1-24.4,34.7-40.3,62.4-45.9c10.3-2.1,21.1-2.6,31.7-2.6c168-0.2,336-0.1,504-0.1
	c7.9,0,15.8-0.3,25.6-0.4c6.4-61.4,17.6-120.8,34.7-178.9c17.3-59,39.9-115.9,67.9-170.6c27.8-54.1,60.2-105.3,97.5-153.3
	c37.7-48.6,79.5-93.4,125.5-134.2c45.5-40.3,94.3-76.2,146.5-107.5c52.7-31.7,107.9-58.1,165.6-79.4
	c57.1-21.1,115.6-36.6,175.6-46.5c60.6-10.1,121.7-14.7,183.2-13c208.9,5.8,398.4,69.6,564.7,196.1
	c227.2,172.7,354.7,403.5,388.8,686.9c6.2,0.4,11.4,1,16.7,1c150,0.1,300,0.1,450,0c5.2,0,10.4-0.8,15.5-1.2
	c3.8-7.3,7.1-13.8,10.4-20.4c50.7-101.3,101.3-202.7,152-304c4.5-8.9,8.9-17.9,14.1-26.4c61.8-100.8,209.3-99.7,269.7,1.9
	c4.4,7.4,8.2,15.3,12.1,23c51,101.9,101.9,203.9,152.9,305.8c3.5,7.1,7.4,14,11.1,21.1c241.8,0,482.4,0,723.1-0.1
	c1.8,0,3.6-1.2,6.2-2.1c2.4-7.6,1.5-15.6,1.5-23.5v-1252c0-5.3,0.2-10.7-0.2-16c-1.5-19.3-12.4-30.6-31.7-32.1
	c-8.6-0.7-17.3-0.3-26-0.3h-1976c-10.7,0-21.4,0.1-31.9-1.2c-54.2-6.4-91.8-60.3-79.6-113.5c9.8-43,45.8-72.9,90-74.7
	c6.7-0.3,13.3-0.1,20-0.1c81.3,0,162.7,0,244-0.1c7.1,0,14.5,1.2,22-2.5c0.4-4.3,1-8.2,1-12.1c0.1-45.3,0.1-90.7,0-136
	c0-4.6-0.3-9.4-1.4-13.9c-3.4-14.2-13.4-22.9-28.1-24.2c-6-0.5-12-0.3-18-0.3h-1990c-6,0-12,0.1-18,0.3c-7.7,0.3-14,3.7-19.5,9
	c-7.2,7.1-9.1,15.9-9.1,25.6c0,47.3,0,94.7,0.1,142c0,3.7,1.5,7.4,2.6,12.2H3366c8.7,0,17.4-0.3,26,0.2c50.7,2.9,90.2,44.3,90,94.6
	c-0.3,56.9-45.7,92.6-87.9,94.2c-11.3,0.4-22.7,0.5-34,0.5h-3120c-4,0-8,0-12,0.4c-17.6,2-27.9,12-29.7,29.5c-0.8,7.9-0.5,16-0.5,24
	v1242c0,6-0.2,12,0.2,18c0.3,3.7,1.4,7.4,2.4,12c9.6,0.2,18.2,0.4,26.8,0.4h736c8,0,16-0.2,24,0.1c37.8,1.3,66.1,18.4,84.3,51.6
	c4.2,7.6,7.9,15.4,11.7,23.2c48.3,96.6,96.5,193.2,144.8,289.7C1231.5,2271,1233.8,2278,1241.1,2285.3L1241.1,2285.3z M928.5,2089.9
	c-242.6,0-482.5,0-722.5,0.1c-1.9,0-3.7,1.2-6,2c-0.6,2.5-1.8,5-1.8,7.6c-0.1,393.3,0,786.6,0,1179.9c0,2.5,1.1,5,1.7,8
	c10.2,3.2,20.2,1.8,30,1.8c1852.6,0.1,3705.1,0.1,5557.7,0.1c6.7,0,13.3,0.1,20-0.2c3.2-0.1,6.3-1.2,9.7-1.8
	c2.9-9.1,1.8-17.8,1.8-26.3c0.1-381.3,0-762.6,0-1143.9c0-4.7,0.2-9.3-0.1-14c-0.2-3.8-0.9-7.6-1.5-11.6c-9.4-3.1-18.1-2-26.7-2
	c-247.3-0.1-494.6,0-742-0.1c-8.7,0-17.4,0.2-26-0.4c-33-2.3-57.9-18.2-75.1-46.3c-4.2-6.8-7.5-14.1-11.1-21.3
	c-49.5-98.9-98.9-197.9-148.4-296.8c-3.2-6.4-6.7-12.6-10.6-20c-7,6.2-9.2,13.3-12.4,19.7c-49.8,99.5-99.6,199.1-149.3,298.6
	c-3.6,7.1-6.9,14.5-11.2,21.2c-17.1,27.2-41.7,42.5-73.9,44.8c-8,0.6-16,0.4-24,0.4c-165.3,0-330.6,0-496,0.1
	c-8.6,0-17.3-1.2-27.1,2c-1,5.3-2.6,11-3.2,16.8c-4.1,38.5-11.2,76.4-20.1,114.1c-93.8,396-436.9,713.6-875.7,748.6
	c-96.9,7.7-193.1,1.1-288.2-20c-290.9-64.7-537.7-259.7-668.8-528.6c-48.9-100.4-79.7-206.1-92.2-317c-0.6-5.2,0.2-10.9-7.1-15.9
	h-175.7c-92.7,0-185.3,0-278,0.1c-7.8,0-16-1.5-24.7,2.7c-3.2,6.3-6.8,13.4-10.4,20.5c-50.7,101.3-101.3,202.7-152,304
	c-4.2,8.3-8.3,16.8-13.1,24.7c-61.9,101.7-210.9,100.1-270.8-2.8c-4.4-7.5-8.1-15.3-12-23c-50.7-101.3-101.3-202.6-152-304
	C936.3,2104.6,932.5,2097.6,928.5,2089.9L928.5,2089.9z M198.9,3481.3c-0.3,8-0.9,15.2-0.9,22.4v498c0,5.3-0.1,10.7,0.5,16
	c2,18.1,13.1,28.7,31.6,29.9c8.6,0.5,17.3,0.2,26,0.2H2984c10,0,20-0.3,30,0.2c50,2.4,89.8,44.8,89.4,95
	c-0.4,49.6-39.4,90.8-88.7,93.6c-8.6,0.5-17.3,0.3-26,0.3h-486c-6,0-12-0.2-18,0.1c-3.8,0.2-7.6,1.3-11.9,2.1
	c-0.3,6.1-0.9,11.3-0.9,16.6c-0.1,43.3,0,86.7,0,130c0,3.3-0.1,6.7,0.1,10c1.3,17,11.7,28.4,28.8,30.6c7.2,0.9,14.6,0.6,22,0.6h972
	c5.3,0,10.7,0,16-0.1c21.2-0.2,34.8-14.6,34.5-35.5c-0.6-47.3-0.1-94.7-0.3-142c0-3.7-1.4-7.4-2.3-11.7c-7.7-0.3-14.3-0.7-20.9-0.7
	c-40-0.1-80,0-120,0c-6.7,0-13.3,0.1-20-0.2c-50.2-2.7-89.7-44.9-89.1-95.2c0.5-49.4,40-90.9,89-93.4c10-0.5,20-0.2,30-0.2h2367.9
	c3.3,0,6.7,0.1,10-0.3c15.8-1.9,27-12.6,29.2-28.3c0.7-5.2,0.5-10.6,0.5-16v-112c0-128.7,0-257.3-0.1-386c0-7.8,1.1-15.9-2-24.2
	c-3.5-0.5-6.7-1.3-9.8-1.4C5759.6,3477.5,218.2,3479,198.9,3481.3L198.9,3481.3z M3009.5,1205.2c-445.9,1.2-789.9,363.8-790.5,788.2
	c-0.6,432.8,351.5,789.8,787.4,791c434.1,1.2,791-352.1,791.5-788.9C3798.4,1567.5,3452.3,1207.5,3009.5,1205.2z M2852.7,4616.1
	c-0.8,5.6-1.7,8.8-1.7,12c0,225.1,0.1,450.3,0.3,675.4c0,1.8,1.3,3.6,2.4,6.3c5,0.4,10.2,1.1,15.4,1.2c20,0.1,40,0.1,60,0.1
	c71.3,0,142.5,0,213.8-0.1c7.1,0,14.5,1.2,21.8-2.2c0.6-2.9,1.7-5.4,1.7-8c0-225.8-0.1-451.6-0.3-677.4c0-1.8-1.4-3.6-2.3-6.1
	c-3.1-0.4-6.3-1.2-9.5-1.2L2852.7,4616.1L2852.7,4616.1z"/>
<path class="st0" d="M2376.6,3858.4h-113.8c-7.3,0-14.6-0.3-21.9-0.9c-48.3-4.2-86.4-47-84.9-96.8c1.4-48.3,39.3-88,88.5-91.8
	c5.3-0.4,10.6-0.3,16-0.3c77.9,0,155.8-0.1,233.7,0.1c10.6,0,21.4,0.8,31.6,3.2c43.9,10.1,74,50.4,72,95.5
	c-2,46.3-35.7,83.5-81.4,89.7c-7.9,1.1-15.9,1-23.9,1.4h-2C2452.5,3858.4,2414.5,3858.4,2376.6,3858.4L2376.6,3858.4z
	 M3008.3,3668.5c40.6,0,81.2,0.1,121.8-0.1c12.1,0,23.9,1.6,35.3,5.5c36.9,12.5,69,49.9,63.1,101.8c-4.7,41.6-38.5,75.7-81.2,81.3
	c-7.9,1-15.9,1.3-23.9,1.3c-76.5,0.1-153.1,0.1-229.6,0c-8.6,0-17.3-0.3-25.9-1.5c-43.8-6.2-77.5-43.2-80.2-86.7
	c-3.1-49.1,30.2-88.6,71.1-98.2c9.6-2.2,19.7-3.2,29.6-3.3C2928.4,3668.3,2968.4,3668.5,3008.3,3668.5L3008.3,3668.5z M3638,3858.4
	h-111.8c-7.3,0-14.6-0.3-21.9-0.9c-48-4-86.6-46.9-85-96.6c1.6-49.3,39.9-89.1,90.2-92.1c4.6-0.3,9.3-0.2,14-0.2
	c77.9,0,155.8-0.1,233.6,0.1c10.6,0,21.3,0.9,31.6,3.1c40.2,8.6,74.9,47.4,72.1,97.3c-2.5,44.6-36.3,81.8-81.1,87.9
	c-7.9,1.1-15.9,1.4-23.9,1.4H3638z M2934.8,2182.3c3.4-6.6,6.8-13,10.1-19.5c95.7-191.3,191.3-382.5,287-573.8
	c3.6-7.1,7-14.4,11.1-21.3c21.7-36.4,63.8-53.7,105-43.4c40.3,10.1,69.7,46.7,71.2,88.8c0.5,13.5-2.3,26.5-7.4,39
	c-2.8,6.8-6.1,13.3-9.4,19.9l-365.7,731.1c-3.3,6.6-6.4,13.2-10.2,19.5c-34.7,57.2-114.7,62-155.9,9.4c-3.7-4.7-7-9.8-10.3-14.7
	c-80.2-120.3-160.4-240.6-240.7-360.9c-10.5-15.7-19-31.9-20.9-51.2c-4.2-42.4,18.8-81.5,58-97.7c38.3-15.8,81.9-5.1,108.6,27
	c5.1,6.1,9.5,12.9,13.9,19.5c47,70.4,93.8,140.9,140.9,211.2C2924.1,2171.1,2926.7,2178.3,2934.8,2182.3L2934.8,2182.3z"/>
</svg>
